<svg xmlns="http://www.w3.org/2000/svg" xmlns:xlink="http://www.w3.org/1999/xlink" viewBox="0 0 769.18 369.85"><defs><style>.cls-1{fill:url(#linear-gradient);}.cls-2{fill:url(#linear-gradient-2);}.cls-3{fill:url(#linear-gradient-3);}.cls-4{fill:url(#linear-gradient-4);}.cls-5{fill:url(#linear-gradient-5);}.cls-6{fill:url(#linear-gradient-6);}.cls-7{fill:url(#linear-gradient-7);}.cls-8{fill:url(#linear-gradient-8);}.cls-9{fill:url(#linear-gradient-9);}.cls-10{fill:url(#linear-gradient-10);}.cls-11{fill:url(#linear-gradient-11);}.cls-12{fill:url(#linear-gradient-12);}.cls-13{fill:url(#linear-gradient-13);}.cls-14,.cls-15,.cls-16,.cls-17,.cls-24,.cls-25,.cls-26,.cls-27,.cls-28,.cls-29,.cls-30,.cls-31,.cls-32,.cls-33,.cls-34{stroke:#1f140f;}.cls-14,.cls-15,.cls-16,.cls-17,.cls-18,.cls-19,.cls-20,.cls-21,.cls-22,.cls-23,.cls-24,.cls-25,.cls-26,.cls-27,.cls-28,.cls-29,.cls-30,.cls-31,.cls-32,.cls-33,.cls-34,.cls-36,.cls-37,.cls-63,.cls-64,.cls-65{stroke-miterlimit:10;}.cls-14{fill:url(#linear-gradient-14);}.cls-15{fill:url(#linear-gradient-15);}.cls-16{fill:url(#linear-gradient-16);}.cls-17{fill:url(#linear-gradient-17);}.cls-18,.cls-19,.cls-20,.cls-21,.cls-23,.cls-36,.cls-37,.cls-63,.cls-64,.cls-65{fill:none;}.cls-18{stroke:url(#linear-gradient-18);}.cls-19{stroke:url(#linear-gradient-19);}.cls-20{stroke:#e6c092;}.cls-21{stroke:url(#linear-gradient-20);}.cls-22{fill:#881b1e;stroke:#fff;stroke-width:0.75px;}.cls-23{stroke:url(#linear-gradient-21);}.cls-24{fill:url(#linear-gradient-22);}.cls-25{fill:url(#linear-gradient-23);}.cls-26{fill:url(#linear-gradient-24);}.cls-27{fill:url(#linear-gradient-25);}.cls-28{fill:url(#linear-gradient-26);}.cls-29{fill:url(#linear-gradient-27);}.cls-30{fill:url(#linear-gradient-28);}.cls-31{fill:url(#linear-gradient-29);}.cls-32{fill:url(#linear-gradient-30);}.cls-33{fill:url(#linear-gradient-31);}.cls-34{fill:url(#linear-gradient-32);}.cls-35{fill:#e6c194;}.cls-36{stroke:url(#linear-gradient-33);}.cls-37{stroke:url(#linear-gradient-34);}.cls-38{fill:url(#radial-gradient);}.cls-39{fill:url(#radial-gradient-2);}.cls-40{fill:url(#radial-gradient-3);}.cls-41{fill:url(#radial-gradient-4);}.cls-42{fill:url(#radial-gradient-5);}.cls-43{fill:url(#radial-gradient-6);}.cls-44{fill:url(#radial-gradient-7);}.cls-45{fill:url(#radial-gradient-8);}.cls-46{fill:url(#radial-gradient-9);}.cls-47{fill:url(#radial-gradient-10);}.cls-48{fill:url(#radial-gradient-11);}.cls-49{fill:url(#radial-gradient-12);}.cls-50{fill:url(#radial-gradient-13);}.cls-51{fill:url(#radial-gradient-14);}.cls-52{font-size:50.81px;fill:#1f140f;font-family:Century;}.cls-53{letter-spacing:-0.06em;}.cls-54{fill:url(#linear-gradient-35);}.cls-55{fill:url(#linear-gradient-36);}.cls-56{fill:url(#linear-gradient-37);}.cls-57{fill:url(#linear-gradient-38);}.cls-58{fill:url(#linear-gradient-39);}.cls-59{fill:url(#linear-gradient-40);}.cls-60{fill:url(#linear-gradient-41);}.cls-61{fill:url(#linear-gradient-42);}.cls-62{fill:url(#linear-gradient-43);}.cls-63,.cls-64{stroke-width:2px;}.cls-63{stroke:url(#linear-gradient-44);}.cls-64{stroke:url(#linear-gradient-45);}.cls-65{stroke:url(#linear-gradient-46);}</style><linearGradient id="linear-gradient" x1="67.7" y1="156.06" x2="368.97" y2="156.06" gradientUnits="userSpaceOnUse"><stop offset="0" stop-color="#c2862d"/><stop offset="0.2" stop-color="#faeda6"/><stop offset="0.5" stop-color="#d5904c"/><stop offset="0.52" stop-color="#d89753"/><stop offset="0.71" stop-color="#f3d28e"/><stop offset="0.8" stop-color="#fde9a5"/><stop offset="0.83" stop-color="#f1d68f"/><stop offset="0.88" stop-color="#dab166"/><stop offset="0.93" stop-color="#c99748"/><stop offset="0.97" stop-color="#bf8736"/><stop offset="1" stop-color="#bb812f"/></linearGradient><linearGradient id="linear-gradient-2" x1="67.7" y1="172.5" x2="368.97" y2="172.5" xlink:href="#linear-gradient"/><linearGradient id="linear-gradient-3" x1="67.7" y1="172.36" x2="368.97" y2="172.36" xlink:href="#linear-gradient"/><linearGradient id="linear-gradient-4" x1="67.7" y1="164.11" x2="368.97" y2="164.11" xlink:href="#linear-gradient"/><linearGradient id="linear-gradient-5" x1="67.7" y1="179.53" x2="368.97" y2="179.53" xlink:href="#linear-gradient"/><linearGradient id="linear-gradient-6" x1="67.7" y1="169.73" x2="368.97" y2="169.73" xlink:href="#linear-gradient"/><linearGradient id="linear-gradient-7" x1="67.7" y1="115.82" x2="368.97" y2="115.82" xlink:href="#linear-gradient"/><linearGradient id="linear-gradient-8" x1="67.7" y1="179.53" x2="368.97" y2="179.53" xlink:href="#linear-gradient"/><linearGradient id="linear-gradient-9" x1="491.28" y1="153.68" x2="720.05" y2="153.68" xlink:href="#linear-gradient"/><linearGradient id="linear-gradient-10" x1="491.28" y1="171.07" x2="720.05" y2="171.07" xlink:href="#linear-gradient"/><linearGradient id="linear-gradient-11" x1="491.28" y1="178.77" x2="720.05" y2="178.77" xlink:href="#linear-gradient"/><linearGradient id="linear-gradient-12" x1="491.28" y1="168.04" x2="720.05" y2="168.04" xlink:href="#linear-gradient"/><linearGradient id="linear-gradient-13" x1="491.28" y1="178.77" x2="720.05" y2="178.77" xlink:href="#linear-gradient"/><linearGradient id="linear-gradient-14" x1="461.56" y1="119.23" x2="509.88" y2="119.23" xlink:href="#linear-gradient"/><linearGradient id="linear-gradient-15" x1="475.27" y1="120.36" x2="499.72" y2="120.36" xlink:href="#linear-gradient"/><linearGradient id="linear-gradient-16" x1="384.85" y1="100.35" x2="440.95" y2="100.35" xlink:href="#linear-gradient"/><linearGradient id="linear-gradient-17" x1="395.32" y1="100.64" x2="425.73" y2="100.64" xlink:href="#linear-gradient"/><linearGradient id="linear-gradient-18" x1="392.94" y1="188.45" x2="454.68" y2="188.45" xlink:href="#linear-gradient"/><linearGradient id="linear-gradient-19" x1="403.37" y1="175.28" x2="456.74" y2="175.28" xlink:href="#linear-gradient"/><linearGradient id="linear-gradient-20" x1="377.75" y1="109.1" x2="434.68" y2="109.1" xlink:href="#linear-gradient"/><linearGradient id="linear-gradient-21" x1="446.5" y1="92.5" x2="459.03" y2="92.5" xlink:href="#linear-gradient"/><linearGradient id="linear-gradient-22" x1="387.7" y1="42.83" x2="486.25" y2="42.83" xlink:href="#linear-gradient"/><linearGradient id="linear-gradient-23" x1="407.21" y1="37.68" x2="438.38" y2="37.68" xlink:href="#linear-gradient"/><linearGradient id="linear-gradient-24" x1="412.52" y1="49.39" x2="424.69" y2="49.39" xlink:href="#linear-gradient"/><linearGradient id="linear-gradient-25" x1="431.86" y1="32.54" x2="450.49" y2="32.54" xlink:href="#linear-gradient"/><linearGradient id="linear-gradient-26" x1="426.78" y1="27.98" x2="444.19" y2="27.98" xlink:href="#linear-gradient"/><linearGradient id="linear-gradient-27" x1="424.36" y1="11.82" x2="449.88" y2="11.82" xlink:href="#linear-gradient"/><linearGradient id="linear-gradient-28" x1="437.94" y1="30.94" x2="470.62" y2="30.94" xlink:href="#linear-gradient"/><linearGradient id="linear-gradient-29" x1="440.92" y1="56.02" x2="483.57" y2="56.02" xlink:href="#linear-gradient"/><linearGradient id="linear-gradient-30" x1="406.06" y1="73.7" x2="454.43" y2="73.7" xlink:href="#linear-gradient"/><linearGradient id="linear-gradient-31" x1="390.04" y1="53.04" x2="454.93" y2="53.04" xlink:href="#linear-gradient"/><linearGradient id="linear-gradient-32" x1="447.45" y1="37.01" x2="467.99" y2="37.01" xlink:href="#linear-gradient"/><linearGradient id="linear-gradient-33" x1="443.19" y1="120.25" x2="459.81" y2="120.25" xlink:href="#linear-gradient"/><linearGradient id="linear-gradient-34" x1="421.6" y1="205.21" x2="472.82" y2="205.21" xlink:href="#linear-gradient"/><radialGradient id="radial-gradient" cx="-667.95" cy="249.12" r="5.06" gradientTransform="translate(2536.99 -609.91) scale(3.76 3.51)" gradientUnits="userSpaceOnUse"><stop offset="0" stop-color="#e5c35f"/><stop offset="0.51" stop-color="#fde7b1"/><stop offset="1" stop-color="#de991e"/></radialGradient><radialGradient id="radial-gradient-2" cx="-665.26" cy="247.13" r="3.71" xlink:href="#radial-gradient"/><radialGradient id="radial-gradient-3" cx="-662.31" cy="248.94" r="2.34" xlink:href="#radial-gradient"/><radialGradient id="radial-gradient-4" cx="-662.61" cy="245.08" r="1.39" xlink:href="#radial-gradient"/><radialGradient id="radial-gradient-5" cx="-663.39" cy="242.69" r="1.32" xlink:href="#radial-gradient"/><radialGradient id="radial-gradient-6" cx="-665.54" cy="241.43" r="1.19" xlink:href="#radial-gradient"/><radialGradient id="radial-gradient-7" cx="-884" cy="259.38" r="22.9" gradientTransform="translate(4760.47) scale(5.14 1)" xlink:href="#radial-gradient"/><radialGradient id="radial-gradient-8" cx="-1401.73" cy="249.97" r="5.06" gradientTransform="matrix(-3.76, 0, 0, 3.51, -4529.2, -609.91)" xlink:href="#radial-gradient"/><radialGradient id="radial-gradient-9" cx="-1399.05" cy="247.98" r="3.71" gradientTransform="matrix(-3.76, 0, 0, 3.51, -4529.2, -609.91)" xlink:href="#radial-gradient"/><radialGradient id="radial-gradient-10" cx="-1396.1" cy="249.79" r="2.34" gradientTransform="matrix(-3.76, 0, 0, 3.51, -4529.2, -609.91)" xlink:href="#radial-gradient"/><radialGradient id="radial-gradient-11" cx="-1396.4" cy="245.93" r="1.39" gradientTransform="matrix(-3.76, 0, 0, 3.51, -4529.2, -609.91)" xlink:href="#radial-gradient"/><radialGradient id="radial-gradient-12" cx="-1397.17" cy="243.54" r="1.32" gradientTransform="matrix(-3.76, 0, 0, 3.51, -4529.2, -609.91)" xlink:href="#radial-gradient"/><radialGradient id="radial-gradient-13" cx="-1399.33" cy="242.28" r="1.19" gradientTransform="matrix(-3.76, 0, 0, 3.51, -4529.2, -609.91)" xlink:href="#radial-gradient"/><radialGradient id="radial-gradient-14" cx="-1508.72" cy="262.38" r="22.9" gradientTransform="matrix(-3.71, 0, 0, 1, -4991.58, 0)" xlink:href="#radial-gradient"/><linearGradient id="linear-gradient-35" x1="213.46" y1="336.36" x2="562.32" y2="336.36" xlink:href="#linear-gradient"/><linearGradient id="linear-gradient-36" x1="213.46" y1="335.92" x2="562.32" y2="335.92" xlink:href="#linear-gradient"/><linearGradient id="linear-gradient-37" x1="213.46" y1="335.92" x2="562.32" y2="335.92" xlink:href="#linear-gradient"/><linearGradient id="linear-gradient-38" x1="213.46" y1="335.92" x2="562.32" y2="335.92" xlink:href="#linear-gradient"/><linearGradient id="linear-gradient-39" x1="213.46" y1="335.92" x2="562.32" y2="335.92" xlink:href="#linear-gradient"/><linearGradient id="linear-gradient-40" x1="213.46" y1="336.27" x2="562.32" y2="336.27" xlink:href="#linear-gradient"/><linearGradient id="linear-gradient-41" x1="213.46" y1="335.92" x2="562.32" y2="335.92" xlink:href="#linear-gradient"/><linearGradient id="linear-gradient-42" x1="213.46" y1="335.92" x2="562.32" y2="335.92" xlink:href="#linear-gradient"/><linearGradient id="linear-gradient-43" x1="213.46" y1="335.54" x2="562.32" y2="335.54" xlink:href="#linear-gradient"/><linearGradient id="linear-gradient-44" x1="414.82" y1="211.41" x2="425.19" y2="228.41" gradientTransform="translate(-8.11 -32.52) rotate(-2.45)" xlink:href="#linear-gradient"/><linearGradient id="linear-gradient-45" x1="438.49" y1="216.65" x2="448.4" y2="232.9" gradientTransform="translate(-8.11 -32.52) rotate(-2.45)" xlink:href="#linear-gradient"/><linearGradient id="linear-gradient-46" x1="412.98" y1="233.63" x2="442.12" y2="233.63" gradientTransform="translate(-8.11 -32.52) rotate(-2.45)" xlink:href="#linear-gradient"/></defs><title>Recurso 2</title><g id="Capa_2" data-name="Capa 2"><g id="Capa_1-2" data-name="Capa 1"><path class="cls-1" d="M153.06,206.66a2.75,2.75,0,0,1-.49,1.62,4.42,4.42,0,0,1-2.21,1.63,1.79,1.79,0,0,1-1.71-1.22c0-.27-.12-.54-.12-.81a1.82,1.82,0,0,1,.12-.68c-.37,0-.74-.14-1.1-.14h-3.8a32.61,32.61,0,0,1-3.8.28,145.8,145.8,0,0,0-15.18,2.57A122.43,122.43,0,0,0,95.5,221a100.52,100.52,0,0,0-19.72,13.39c-1.35,1.22-3.06,3.25-4.9,3.79h-.49a2.41,2.41,0,0,1-2.45-1.76,4.33,4.33,0,0,1-.24-1.22,15.7,15.7,0,0,1,1.22-4.87c1.72-4.73,4.17-9.19,6.25-13.79,4.9-10.15,9.43-20.43,14-30.71,7.22-16.24,14.08-32.74,20.21-49.52,3.55-9.87,6.85-19.75,9.92-29.9,2.57-8,4.77-16.23,7.22-24.35.74-2.3.86-5,2.21-7A2.24,2.24,0,0,1,130.4,74c1.1,0,2.08,1.35,2.08,3-.12,2.17-1.1,4.47-1.71,6.5-2.33,8.25-5,16.36-8.09,24.48-3.91,10.69-8.08,21.11-12.36,31.66L84.6,202.47c-2.08,5.27-4.29,10.41-6.37,15.69-1.47,4.19-3.06,8.25-4.53,12.44,1.1-.67,5.75-3.24,6.86-3.92,4.65-2.7,9.3-5.28,14.2-7.57l2.57-1.22a198.39,198.39,0,0,1,26.82-10.55,102.83,102.83,0,0,1,15.56-3.52,50.56,50.56,0,0,1,6.49-.54h1.47c1.34,0,2.94,0,4,.81A3,3,0,0,1,153.06,206.66Z"/><path class="cls-2" d="M197.51,167.16c0,.54-.73,1.08-1.1,1.35-.73.4-1.47.68-2.08,1.08a46.93,46.93,0,0,1-8.2,3.11,50.32,50.32,0,0,1-6.13,1.36c-.61.13-1.22.13-1.83.27-.86,1.76-1.84,3.51-2.82,5.27a26.07,26.07,0,0,1-5.15,6.63,4.5,4.5,0,0,1-2.93,1.22H167a2.5,2.5,0,0,1-1.84-1.76,6,6,0,0,1-.36-2c0-.81.12-1.49.12-2.16a25.66,25.66,0,0,1,.73-4.2,47.82,47.82,0,0,1,1.84-6,6.43,6.43,0,0,1-.24-1.49v-.4a6,6,0,0,1,.36-2,14.38,14.38,0,0,1,1.47-3.12,22.62,22.62,0,0,1,4.53-5.27,6.75,6.75,0,0,1,3.8-1.49,5,5,0,0,1,1.72.54c1.83.95,2.32,3.11,2.32,5.28a19.73,19.73,0,0,1-.49,3.92,35.64,35.64,0,0,1-2,5.14c2.33-.4,4.53-.94,6.62-1.49a40.39,40.39,0,0,0,5.75-2,28,28,0,0,0,2.94-1.21,7,7,0,0,1,2.45-1.09C197,166.61,197.51,166.61,197.51,167.16Zm-20.81,7.3h-2.94a8.67,8.67,0,0,1-3.19-.54h-.12c-.61,1.49-1.22,3-1.71,4.46a26.58,26.58,0,0,0-1,3,10.66,10.66,0,0,0-.37,2.17v.54c0,.4,0,.81.24.81a4.29,4.29,0,0,0,1.35-.54,9.92,9.92,0,0,0,1.22-.81,20.61,20.61,0,0,0,4.05-4.74A29.75,29.75,0,0,0,176.7,174.46Zm2.57-10.82c-.12-1.35-.49-3.38-2-3.38h-.12a5.54,5.54,0,0,0-2.33.94,26.68,26.68,0,0,0-2.21,1.9,20.7,20.7,0,0,0-1.59,1.89,2.31,2.31,0,0,1,2.21,1.9v.27a2.11,2.11,0,0,1-.25.81c-.61,1.35-1.22,2.84-1.84,4.19a15.74,15.74,0,0,0,2.7.54,33.51,33.51,0,0,0,3.55-.13,3.56,3.56,0,0,0,.25-.68,2.66,2.66,0,0,1,.24-.68A26.31,26.31,0,0,0,179.27,163.64Z"/><path class="cls-3" d="M239,167.16v.13a1.88,1.88,0,0,1-1.1,1.62c-1.47,1.09-2.82,2.17-4.29,3.25-1.83,1.49-3.79,3-5.63,4.6s-3.55,3.25-5.39,5c-1,.81-2,1.76-2.94,2.57a8,8,0,0,1-3.3,1.76h-.62a2.85,2.85,0,0,1-2.57-1.63,6,6,0,0,1-.37-2,14.17,14.17,0,0,1,.49-3.38,34.33,34.33,0,0,1,1.23-3.79,32,32,0,0,1,1.35-3.65c.61-1.49,1.34-3,2-4.46l-3.68,4.46c-1.59,1.89-3.18,3.79-4.9,5.68a68.75,68.75,0,0,1-5.39,5.41,24.7,24.7,0,0,1-3.06,2.3,10,10,0,0,1-5.14,1.9,4.44,4.44,0,0,1-1.35-.14c-2.08-.67-2.81-2.57-2.81-4.73a23.5,23.5,0,0,1,1.46-7,34.33,34.33,0,0,1,1.23-3.79c1-2.43,2-4.87,3.06-7.17l2.21-4.87a1.23,1.23,0,0,1,.36-.81,2.31,2.31,0,0,1,1.11-.54h.36a2.15,2.15,0,0,1,2.33,2.3,7.87,7.87,0,0,1-.74,2.44c-.61,1.21-1.1,2.43-1.71,3.65-1,2.3-2.08,4.6-2.94,6.9-.49,1.22-1,2.3-1.35,3.52s-.73,2.3-1,3.38a7.55,7.55,0,0,0-.24,1.62v1c.12,0,.37-.14.49-.14a7.35,7.35,0,0,0,2.69-1.08,13.26,13.26,0,0,0,2.7-2,59.41,59.41,0,0,0,5.26-4.73c1.72-1.76,3.31-3.66,4.9-5.41l5-5.55a15.77,15.77,0,0,1,2.7-2.44,3.27,3.27,0,0,1,1.47-.54c.85,0,1.47.54,1.59,1.63a9.22,9.22,0,0,1-1.23,3.51l-3.3,6.9a54.64,54.64,0,0,0-2.7,6.9,11.76,11.76,0,0,0-.61,3,2.64,2.64,0,0,0,.25,1.08.8.8,0,0,0,.85.54,2.68,2.68,0,0,0,1.47-.4,25.39,25.39,0,0,0,4.78-3.66c2.33-2.16,4.65-4.6,7-6.76a55.68,55.68,0,0,1,7.59-6.22,2.41,2.41,0,0,1,1.47-.68,1.07,1.07,0,0,1,.62.13A.58.58,0,0,1,239,167.16Z"/><path class="cls-4" d="M261.57,167.56c0,.68-.49,1.08-1,1.63-1.35,1.75-2.7,3.24-4.17,4.87-1.83,2-3.79,4.05-5.75,5.95-2.08,2.16-4.17,4.19-6.37,6.22a19.51,19.51,0,0,1-5.51,3.79,5.33,5.33,0,0,1-2.08.54,1.86,1.86,0,0,1-.86-.14,3.38,3.38,0,0,1-2-2,8.29,8.29,0,0,1-.61-3.39v-.94c.12-.82.12-1.63.24-2.44a99.22,99.22,0,0,1,4.78-17l2.57-6.09a2.4,2.4,0,0,1,2.21-1.35,1.93,1.93,0,0,1,1.71.94,3,3,0,0,1,.37,1.49,3.46,3.46,0,0,1-.25,1.08c-2.32,6-5,11.64-7.1,17.72a32.25,32.25,0,0,0-1.47,6,8.64,8.64,0,0,0-.12,1.76,2.46,2.46,0,0,0,.24,1.35c.12.27.49.27.74.27a2.14,2.14,0,0,0,1-.14,16.17,16.17,0,0,0,5.51-3.11,60.39,60.39,0,0,0,6.12-5.41c2-2,3.68-4.19,5.51-6.22l2.7-3.25c.61-.81,1.22-1.62,2-2.43a.87.87,0,0,1,.85-.55H261c.24,0,.49.28.61.68Zm-15.43-21a1.65,1.65,0,0,1-1.47-1.08,3,3,0,0,1-.49-1.49,1.07,1.07,0,0,1,.24-.67c.74-.68,1.35-1.36,2.08-2a18,18,0,0,1,1.6-1.49,13.21,13.21,0,0,1,1.22-1.62,1.67,1.67,0,0,1,1.23-.55,1.9,1.9,0,0,1,1.83,1.63v.27c0,1.22-.85,2.16-1.47,3.11a16.85,16.85,0,0,1-4,3.52Z"/><path class="cls-5" d="M289.37,167.29a1.41,1.41,0,0,1-1,1.22c-2,1-3.92,1.76-5.76,2.57-2.32,1.08-4.53,2.3-6.73,3.52a56,56,0,0,0-6.62,3.92,8,8,0,0,1,.49,1.89,12.46,12.46,0,0,1,.25,2.3,22.19,22.19,0,0,1-.74,5,23.67,23.67,0,0,1-1.59,4.19c-1.83,4.06-4.65,8.12-8.33,10.28a9.27,9.27,0,0,1-4.28,1.22,5.32,5.32,0,0,1-3.43-1.22,5.09,5.09,0,0,1-1.59-3.92,7.66,7.66,0,0,1,.36-2.3c1.11-3.38,3.8-6.22,6.13-8.66a74.71,74.71,0,0,1,5.75-5.54c1-.81,2-1.63,2.82-2.3a5.62,5.62,0,0,0-1.35-2.57,33.87,33.87,0,0,1-2.69-3.25,7.32,7.32,0,0,1-1.23-3.92c0-.27-.12-.41-.12-.68s.12-.41.12-.54a11.91,11.91,0,0,1,1.35-4.74,17.93,17.93,0,0,1,2.57-3.51,23.32,23.32,0,0,1,3.19-3,8,8,0,0,1,4.28-1.62,3.34,3.34,0,0,1,1.6.27,3.21,3.21,0,0,1,1.83,2.7,3.78,3.78,0,0,1-1.71,2.84,18.2,18.2,0,0,1-3.31,2.3,27.67,27.67,0,0,1-3.43,1.9,10.18,10.18,0,0,1-1.59.94l-1.47.68a5.7,5.7,0,0,0-.12,1.35,5.25,5.25,0,0,0,.73,2.71,35.91,35.91,0,0,0,2.7,2.44,16.07,16.07,0,0,1,2.2,3c2.08-1.49,4.17-2.84,6.25-4.19,1.34-.81,2.81-1.63,4.16-2.3a74.44,74.44,0,0,1,8.82-4.06h.24a1.3,1.3,0,0,1,1,.4A1.49,1.49,0,0,1,289.37,167.29Zm-23.88,13.94c-.74.67-1.47,1.21-2.21,1.89a44.48,44.48,0,0,0-5.51,5.55,27.08,27.08,0,0,0-2.2,3.11,16.15,16.15,0,0,0-2,5.14,3,3,0,0,0,.12,1.22c.12.27.37.27.61.27h.37a3.35,3.35,0,0,0,1.1-.27,8.54,8.54,0,0,0,3.68-2.71,25.77,25.77,0,0,0,5.39-9.33,15.3,15.3,0,0,0,.61-3.39Z"/><path class="cls-6" d="M322.19,167.7c0,.94-.86,1.62-1.47,2.3a52.65,52.65,0,0,1-6.37,5.81,62.41,62.41,0,0,1-9.55,6.36,37.58,37.58,0,0,1-5.27,2.44,18,18,0,0,1-5.26.94,8.54,8.54,0,0,1-4-.94c-2.94-1.76-4.29-5.28-4.29-8.8V174.6a10.73,10.73,0,0,1,.25-2A23.68,23.68,0,0,1,295.13,158a25.76,25.76,0,0,1,5.14-3.25,12.84,12.84,0,0,1,3.06-.81c.25,0,.49.13.74.13a2.88,2.88,0,0,1,2.2,2.17v.54a5.5,5.5,0,0,1-1,2.7,19.65,19.65,0,0,1-4.29,3.79,26.57,26.57,0,0,1-4.89,3c-1.23.54-2.33,1.08-3.56,1.49-.36.67-.61,1.49-1,2.3a24.24,24.24,0,0,0-1.1,5c0,2,.37,4.33,1.84,5.82a6.54,6.54,0,0,0,4.41,1.49,10.47,10.47,0,0,0,3.55-.54c4.65-1.49,8.82-4.6,12.74-7.85l6.24-5.68a5.72,5.72,0,0,1,1.59-1.49,1,1,0,0,1,.62-.14c.36,0,.61.28.73.68Zm-27.31-3.52a7.94,7.94,0,0,0,1.72-1.08c1-.68,2-1.49,2.93-2.17.62-.67,1.35-1.21,2-1.89.25-.27.49-.68.74-.95a27.68,27.68,0,0,0-2.7,1.63,23.66,23.66,0,0,0-1.95,1.75A28.68,28.68,0,0,0,294.88,164.18Z"/><path class="cls-7" d="M334,120.08a.55.55,0,0,1,.12-.41,6.2,6.2,0,0,1,1-1.49,22.18,22.18,0,0,1,1.72-1.76l.73-.81c0-.13,0-.13.12-.27a.75.75,0,0,1,.25-.54c.24-.4.49-.68.73-1.08a7.19,7.19,0,0,1,1.47-1.9,14.7,14.7,0,0,1,1.47-1.48,2.05,2.05,0,0,1,.86-.27,1.38,1.38,0,0,1,1.47,1.48v.27a3.24,3.24,0,0,1-1.35,2c-.24.27-.61.55-.86.82a11.33,11.33,0,0,0-1.71,1.75c-.49.55-1,1.22-1.47,1.76s-1,1.22-1.47,1.9a8,8,0,0,1-1.35,1.49,1.19,1.19,0,0,1-.61-.14A1.53,1.53,0,0,1,334,120.08Z"/><path class="cls-8" d="M369,167.29a1.41,1.41,0,0,1-1,1.22c-2,1-3.92,1.76-5.75,2.57-2.33,1.08-4.53,2.3-6.74,3.52a55.87,55.87,0,0,0-6.61,3.92,8.56,8.56,0,0,1,.49,1.89,13.42,13.42,0,0,1,.24,2.3,22.19,22.19,0,0,1-.73,5,24.48,24.48,0,0,1-1.59,4.19c-1.84,4.06-4.66,8.12-8.33,10.28a9.35,9.35,0,0,1-4.29,1.22,5.34,5.34,0,0,1-3.43-1.22,5.09,5.09,0,0,1-1.59-3.92A7.37,7.37,0,0,1,330,196c1.1-3.38,3.8-6.22,6.12-8.66a76.69,76.69,0,0,1,5.76-5.54c1-.81,2-1.63,2.81-2.3a5.7,5.7,0,0,0-1.34-2.57,34,34,0,0,1-2.7-3.25,7.4,7.4,0,0,1-1.22-3.92c0-.27-.12-.41-.12-.68s.12-.41.12-.54a11.59,11.59,0,0,1,1.35-4.74,17.53,17.53,0,0,1,2.57-3.51,23.82,23.82,0,0,1,3.18-3,8.09,8.09,0,0,1,4.29-1.62,3.31,3.31,0,0,1,1.59.27,3.22,3.22,0,0,1,1.84,2.7,3.79,3.79,0,0,1-1.72,2.84,18.13,18.13,0,0,1-3.3,2.3,29.19,29.19,0,0,1-3.43,1.9,10.66,10.66,0,0,1-1.59.94l-1.47.68a5.79,5.79,0,0,0,.61,4.06,33.62,33.62,0,0,0,2.69,2.44,16.6,16.6,0,0,1,2.21,3c2.08-1.49,4.16-2.84,6.24-4.19,1.35-.81,2.82-1.63,4.17-2.3a73.58,73.58,0,0,1,8.81-4.06h.25a1.32,1.32,0,0,1,1,.4A1.59,1.59,0,0,1,369,167.29Zm-23.88,13.94c-.73.67-1.47,1.21-2.2,1.89a43.81,43.81,0,0,0-5.51,5.55,26,26,0,0,0-2.21,3.11,16.63,16.63,0,0,0-2,5.14,2.8,2.8,0,0,0,.13,1.22c.12.27.36.27.61.27h.37a3.47,3.47,0,0,0,1.1-.27,8.51,8.51,0,0,0,3.67-2.71,25.49,25.49,0,0,0,5.39-9.33,15.3,15.3,0,0,0,.61-3.39Z"/><path class="cls-9" d="M526.89,168.93c2.61,2.37,5.22,4.74,7.83,7,8.39,7.4,17,14.51,25.71,21.62s17.46,14.21,26,21.47c4.26,3.55,8.52,7.25,12.78,11.25,1,1,1.93,1.92,3,3a31,31,0,0,1,4.26,5.33,5.38,5.38,0,0,1,1,3v.45a2.84,2.84,0,0,1-2.89,2.22,2.51,2.51,0,0,1-1.51-.3c-.55-.29-1.37-.74-1.37-1.48v-.15c0-.59.68-.89,1.1-1a2.63,2.63,0,0,1,.82-.3,4,4,0,0,0-1.24-1.78,57.89,57.89,0,0,0-5.63-6.07c-4-3.7-8.25-7.4-12.51-11.1s-8.39-7.41-12.65-11.11L558.64,200c-3.71-3.25-7.56-6.51-11.41-9.92-8.38-7.25-16.77-14.66-25-22.21-.14-.15-.14-.15-.27-.15-1.79,4.45-3.58,9-5.23,13.48-3.85,9.92-7.56,19.69-11.13,29.76-2.62,7.4-5.09,15-7.15,22.51a57,57,0,0,0-1.51,6.66c-.14,1.48-.83,3-2.34,3.26-.28,0-.41.15-.69.15a2.45,2.45,0,0,1-2.2-1.34,2.24,2.24,0,0,1-.41-1.63,17.66,17.66,0,0,1,.82-3.85c.69-3,1.38-5.77,2.07-8.73,1-4,2.06-8,3-11.85,2.06-8,4.26-15.84,6.74-23.54s5.22-15.4,8.38-22.8c.83-2.08,1.79-4,2.62-5.93a25.08,25.08,0,0,1-3.85-4,24.81,24.81,0,0,1-3.3-5.48,2.88,2.88,0,0,1-.28-1,2.14,2.14,0,0,1,1.1-1.92,1.67,1.67,0,0,1,2.34.44,77.48,77.48,0,0,0,6.19,7.4c0-.14.13-.29.27-.59,1.65-3.55,3.57-7.11,5.5-10.66A189.61,189.61,0,0,1,537.2,126l.82-1.78a2,2,0,0,1-1.51-1,2.93,2.93,0,0,1-.41-1.48,4.65,4.65,0,0,1,.27-1.48c1-1.92,1.79-3.85,2.61-5.62l3.3-7.26c2.2-4.74,4.54-9.62,6.74-14.36,4.68-9.48,9.21-19.1,14.44-28.28a2.57,2.57,0,0,1,2.06-1.48,2.52,2.52,0,0,1,1.92,1.18,1.64,1.64,0,0,1,.42,1,1.19,1.19,0,0,1-.14.59c-3.3,7-6.88,13.77-10.17,20.73l-3.44,7.11c-4.13,8.73-8.25,17.47-12.24,26.35a132.66,132.66,0,0,1,9.49-10.36,139.82,139.82,0,0,1,18-15.25,95.46,95.46,0,0,1,20.35-11.26,49.51,49.51,0,0,1,14.29-4,17.27,17.27,0,0,1,2.75-.14c6.88,0,14.16,2.66,15.26,11.25a13.47,13.47,0,0,1,.14,2.37c0,7.85-4.54,15.69-8.52,21.77a100.48,100.48,0,0,1-7.43,9.62,151.88,151.88,0,0,1-16.91,16.58,189.1,189.1,0,0,1-18.83,13.92c-8.25,5.19-17.05,9.78-26.26,12.44a49.24,49.24,0,0,1-11.55,2.07A38.47,38.47,0,0,1,526.89,168.93Zm-7.15-2.07a16.61,16.61,0,0,1-1.52-.75,12.91,12.91,0,0,1-2.06-1.33c-.82,1.93-1.65,3.7-2.47,5.63-3,7.55-5.78,15.1-8.11,22.8-1.93,6.52-3.58,13.18-4.95,19.84.41-1.18,1-2.37,1.37-3.7,1.93-4.88,4-9.77,6.05-14.66s4-9.77,6.05-14.66C516,175.59,517.81,171.3,519.74,166.86Zm6.87-16c2.75-6.36,5.5-12.88,8.25-19.25A168.42,168.42,0,0,0,524,148.79c-1.93,3.55-3.71,7.11-5.5,10.66l-.41.89c1,1,2.06,2.07,3,3.11C522.9,159.3,524.82,155,526.61,150.86Zm.55,15a31.83,31.83,0,0,0,5.23.44c5.63,0,11.41-1.48,16.63-3.26a114.28,114.28,0,0,0,20.35-10.21,159.13,159.13,0,0,0,18.42-13.92,138.87,138.87,0,0,0,16-17c4.81-5.92,9.35-12.58,11.68-20a32.46,32.46,0,0,0,1.38-8.29c0-3.85-1.24-7.4-5.22-9a20.48,20.48,0,0,0-7.84-1.48,39,39,0,0,0-13.2,2.66,96,96,0,0,0-20.21,10.66A124.59,124.59,0,0,0,552.46,111a150.65,150.65,0,0,0-12.79,14.22c-3.85,8.73-7.56,17.62-11.27,26.5-1.65,4.3-3.44,8.59-5.23,12.88A20.35,20.35,0,0,0,527.16,165.82Z"/><path class="cls-10" d="M620.93,165.23c0,.59-.83,1.18-1.24,1.48-.83.44-1.65.74-2.34,1.18a53.53,53.53,0,0,1-9.21,3.41,58.28,58.28,0,0,1-6.88,1.48c-.68.15-1.37.15-2.06.29-1,1.93-2.06,3.85-3.16,5.78a29,29,0,0,1-5.77,7.25,5.21,5.21,0,0,1-3.3,1.34h-.28a2.78,2.78,0,0,1-2.06-1.93,6.22,6.22,0,0,1-.41-2.22c0-.89.13-1.63.13-2.37a27.34,27.34,0,0,1,.83-4.59,51.4,51.4,0,0,1,2.06-6.51,6.69,6.69,0,0,1-.27-1.63v-.45a6.22,6.22,0,0,1,.41-2.22,15.06,15.06,0,0,1,1.65-3.4,24.18,24.18,0,0,1,5.09-5.78,7.62,7.62,0,0,1,4.26-1.63,5.46,5.46,0,0,1,1.92.6c2.06,1,2.62,3.4,2.62,5.77a21.05,21.05,0,0,1-.56,4.29,39.81,39.81,0,0,1-2.19,5.63c2.61-.44,5.08-1,7.42-1.63a47.3,47.3,0,0,0,6.46-2.22,30.35,30.35,0,0,0,3.3-1.33,7.89,7.89,0,0,1,2.75-1.19C620.38,164.63,620.93,164.63,620.93,165.23Zm-23.38,8h-3.3a10.17,10.17,0,0,1-3.57-.59h-.14c-.69,1.63-1.37,3.26-1.92,4.89a27.64,27.64,0,0,0-1.1,3.25,11.79,11.79,0,0,0-.42,2.37v.6c0,.44,0,.88.28.88a4.41,4.41,0,0,0,1.51-.59,11.39,11.39,0,0,0,1.38-.89A22.36,22.36,0,0,0,594.8,178,31.59,31.59,0,0,0,597.55,173.22Zm2.89-11.84c-.14-1.48-.55-3.71-2.2-3.71h-.14a6.56,6.56,0,0,0-2.61,1,30.12,30.12,0,0,0-2.47,2.07,23.66,23.66,0,0,0-1.79,2.08,2.55,2.55,0,0,1,2.47,2.07v.3a2.13,2.13,0,0,1-.27.88c-.69,1.49-1.38,3.11-2.06,4.6a19.23,19.23,0,0,0,3,.59,36.74,36.74,0,0,0,4-.15,4,4,0,0,0,.27-.74,2.5,2.5,0,0,1,.28-.74A28.61,28.61,0,0,0,600.44,161.38Z"/><path class="cls-11" d="M652.13,165.37a1.54,1.54,0,0,1-1.1,1.34c-2.2,1-4.4,1.92-6.46,2.81-2.61,1.19-5.09,2.52-7.56,3.85a63.5,63.5,0,0,0-7.42,4.29,9.57,9.57,0,0,1,.55,2.08,14.74,14.74,0,0,1,.27,2.51,23.92,23.92,0,0,1-.82,5.48,26.49,26.49,0,0,1-1.79,4.59c-2.06,4.45-5.23,8.89-9.35,11.26a10.72,10.72,0,0,1-4.81,1.33,6.1,6.1,0,0,1-3.85-1.33,5.53,5.53,0,0,1-1.79-4.3,8.09,8.09,0,0,1,.41-2.51c1.24-3.71,4.27-6.82,6.88-9.48a83.34,83.34,0,0,1,6.46-6.07c1.1-.89,2.2-1.78,3.16-2.52a6.21,6.21,0,0,0-1.51-2.81,37.16,37.16,0,0,1-3-3.56A7.91,7.91,0,0,1,619,168c0-.3-.14-.44-.14-.74s.14-.44.14-.59a12.64,12.64,0,0,1,1.51-5.19,19.88,19.88,0,0,1,2.89-3.85,26.59,26.59,0,0,1,3.57-3.25,9.19,9.19,0,0,1,4.82-1.78,3.73,3.73,0,0,1,1.78.3,3.52,3.52,0,0,1,2.07,3,4.17,4.17,0,0,1-1.93,3.11,21,21,0,0,1-3.71,2.51,34.54,34.54,0,0,1-3.85,2.08,11,11,0,0,1-1.79,1l-1.65.74a5.94,5.94,0,0,0-.14,1.49,5.66,5.66,0,0,0,.83,3,38.3,38.3,0,0,0,3,2.66,17.89,17.89,0,0,1,2.48,3.26c2.34-1.63,4.67-3.11,7-4.59,1.51-.89,3.16-1.78,4.67-2.52a84.69,84.69,0,0,1,9.9-4.44h.28a1.53,1.53,0,0,1,1.1.44A1.63,1.63,0,0,1,652.13,165.37Zm-26.81,15.26c-.82.74-1.65,1.33-2.47,2.07a49.88,49.88,0,0,0-6.19,6.07,30.61,30.61,0,0,0-2.47,3.41,17.31,17.31,0,0,0-2.2,5.62,3.13,3.13,0,0,0,.14,1.34c.13.29.41.29.68.29h.41a3.93,3.93,0,0,0,1.24-.29,9.53,9.53,0,0,0,4.13-3,27.79,27.79,0,0,0,6-10.21,16.25,16.25,0,0,0,.68-3.71Z"/><path class="cls-12" d="M689,165.82c0,1-1,1.78-1.65,2.52a59.29,59.29,0,0,1-7.15,6.36,70.3,70.3,0,0,1-10.72,7,42.53,42.53,0,0,1-5.92,2.67,20.69,20.69,0,0,1-5.91,1,9.7,9.7,0,0,1-4.53-1c-3.3-1.93-4.82-5.78-4.82-9.63v-1.33a12,12,0,0,1,.28-2.22,25.87,25.87,0,0,1,10-16,29.37,29.37,0,0,1,5.78-3.56,15,15,0,0,1,3.44-.88c.27,0,.55.14.82.14a3.21,3.21,0,0,1,2.47,2.37v.59a6,6,0,0,1-1.09,3,22.23,22.23,0,0,1-4.82,4.14,30,30,0,0,1-5.5,3.26c-1.37.59-2.61,1.18-4,1.63-.42.74-.69,1.63-1.1,2.52a26.3,26.3,0,0,0-1.24,5.47c0,2.23.41,4.74,2.06,6.37a7.43,7.43,0,0,0,5,1.63,12,12,0,0,0,4-.59c5.22-1.63,9.9-5,14.3-8.59l7-6.22a6.38,6.38,0,0,1,1.79-1.63,1.13,1.13,0,0,1,.68-.15.9.9,0,0,1,.83.74ZM658.32,162a8.49,8.49,0,0,0,1.92-1.19c1.1-.74,2.2-1.62,3.3-2.36.69-.75,1.52-1.34,2.2-2.08.28-.29.55-.74.83-1a33,33,0,0,0-3,1.77,26.89,26.89,0,0,0-2.2,1.93A31.54,31.54,0,0,0,658.32,162Z"/><path class="cls-13" d="M720.05,165.37a1.54,1.54,0,0,1-1.1,1.34c-2.2,1-4.4,1.92-6.46,2.81-2.62,1.19-5.09,2.52-7.56,3.85a63.61,63.61,0,0,0-7.43,4.29,9,9,0,0,1,.55,2.08,13.76,13.76,0,0,1,.28,2.51,23.93,23.93,0,0,1-.83,5.48,25.71,25.71,0,0,1-1.79,4.59c-2.06,4.45-5.22,8.89-9.35,11.26a10.68,10.68,0,0,1-4.81,1.33,6.12,6.12,0,0,1-3.85-1.33,5.55,5.55,0,0,1-1.78-4.3,7.81,7.81,0,0,1,.41-2.51c1.24-3.71,4.26-6.82,6.87-9.48a83.34,83.34,0,0,1,6.46-6.07c1.1-.89,2.2-1.78,3.17-2.52a6.23,6.23,0,0,0-1.52-2.81,35.68,35.68,0,0,1-3-3.56,7.84,7.84,0,0,1-1.38-4.29c0-.3-.13-.44-.13-.74s.13-.44.13-.59a12.5,12.5,0,0,1,1.52-5.19,19.44,19.44,0,0,1,2.88-3.85,26.09,26.09,0,0,1,3.58-3.25,9.13,9.13,0,0,1,4.81-1.78,3.77,3.77,0,0,1,1.79.3,3.51,3.51,0,0,1,2.06,3,4.16,4.16,0,0,1-1.92,3.11,21.12,21.12,0,0,1-3.72,2.51,32.85,32.85,0,0,1-3.85,2.08,10.87,10.87,0,0,1-1.78,1l-1.65.74a5.94,5.94,0,0,0-.14,1.49,5.65,5.65,0,0,0,.82,3,37,37,0,0,0,3,2.66,17.83,17.83,0,0,1,2.47,3.26c2.34-1.63,4.68-3.11,7-4.59,1.52-.89,3.17-1.78,4.68-2.52a84,84,0,0,1,9.9-4.44h.27a1.5,1.5,0,0,1,1.1.44A1.66,1.66,0,0,1,720.05,165.37Zm-26.81,15.26c-.83.74-1.65,1.33-2.48,2.07a49.12,49.12,0,0,0-6.18,6.07,29.45,29.45,0,0,0-2.48,3.41,17.78,17.78,0,0,0-2.2,5.62,3.13,3.13,0,0,0,.14,1.34c.14.29.41.29.69.29h.41a4,4,0,0,0,1.24-.29,9.5,9.5,0,0,0,4.12-3,27.79,27.79,0,0,0,6-10.21,15.73,15.73,0,0,0,.69-3.71Z"/><path class="cls-14" d="M477.35,96.67c.52.38,9.46-2.7,18.92,3.14a2.93,2.93,0,0,0-1,.66s4.21,1.92,5.92,3.72a3.19,3.19,0,0,0-1.54.76s5.14,3.11,7.27,5.73a2.53,2.53,0,0,0-1.57.84,48,48,0,0,1,3.6,4.41,2,2,0,0,0-1.62.2,10.93,10.93,0,0,1,2,2.43,3.08,3.08,0,0,0-1.5.3,19.23,19.23,0,0,1,2.08,3.94,2.48,2.48,0,0,0-1.76-.17,9.47,9.47,0,0,1,.78,4.06,2.35,2.35,0,0,0-1.6-.74s.94,3.47.51,5.32a1.88,1.88,0,0,0-1.49-.87s.55,2.89.06,4.17a4.17,4.17,0,0,0-1.56-.65,12.4,12.4,0,0,1-.25,4.41,4.26,4.26,0,0,0-1.4-.93,7.86,7.86,0,0,1-.53,3.39,1.5,1.5,0,0,0-1.18-.55,9.31,9.31,0,0,1-.57,3.53,1.92,1.92,0,0,0-1.45-.77,7,7,0,0,1-.53,2.83,1.49,1.49,0,0,0-1-.51,7.37,7.37,0,0,1-.78,3.16,3.9,3.9,0,0,0-1-1,6.94,6.94,0,0,1-.94,2.89,1.21,1.21,0,0,0-1.09-.61,22.86,22.86,0,0,1-.38,3.12c-1-.35-3.16-3.13-3.16-3.13a2,2,0,0,0-.38,1.39c.09.81-2.2-2.65-2.2-2.65a5.43,5.43,0,0,0-.47,1.46,13.36,13.36,0,0,1-2.09-2.76s-.33.06-.49,1a7,7,0,0,1-2.42-2.69s-.07.21-.27,1.26a7.92,7.92,0,0,1-2.37-2.6,3.46,3.46,0,0,1-.32,1.49,10,10,0,0,1-1.86-3s-.18.66-.46,1.44a11.35,11.35,0,0,1-2.39-3.15,3.25,3.25,0,0,0-.81,1.27,4.56,4.56,0,0,1-1.77-3.06A3.9,3.9,0,0,0,471,140c-1.21-1.35-1-4.13-1-4.13a8.38,8.38,0,0,0-1.53.69,10.93,10.93,0,0,1,0-3.93,4.39,4.39,0,0,0-1.73.87,15,15,0,0,1,.17-4.12,3.9,3.9,0,0,0-1.66.89,13.51,13.51,0,0,1,0-4.16,2.66,2.66,0,0,0-1.51.93,11.17,11.17,0,0,1,.24-3.78,4.94,4.94,0,0,0-1.63,1,10,10,0,0,1,.56-3.23,6.8,6.8,0,0,0-1.3.44,12.23,12.23,0,0,1,1.36-3.56l-1.16.47a37,37,0,0,1,1.32-4,8.31,8.31,0,0,0-1.27,0,15.36,15.36,0,0,1,1.61-3.65,5.76,5.76,0,0,1-1.28-.19c.25-1,3.23-4.39,3.23-4.39l-1.32-.35c.2-.76,2.46-3.74,5.86-6.06a4.88,4.88,0,0,0,.75-7.42c-1.21-1.27-2.57-2.64-4.06-4,.26-1,.5-1.94.78-2.82C473,91.22,476.8,96.35,477.35,96.67Z"/><path class="cls-15" d="M478.3,99.06c.48.31,3.1,2.65,3.1,2.65,7.3,1.7,15,8.28,16.45,10.25-1.75-1.58-8.73-6.9-15.31-8.69a36.55,36.55,0,0,1,4.33,7.51c5.54,3,12.54,11.62,12.85,14.89-1.16-2.81-7.23-10.35-12.26-13.3a56.26,56.26,0,0,1,3.21,10.06c3.16,4,6.66,10.06,6.64,12.92-1.08-3.29-6.22-10.56-6.22-10.56s2,11-.56,16.88a48.11,48.11,0,0,0,.11-14.52c-.85,3.63-1.9,5.81-4.87,9.89a40.08,40.08,0,0,0,4.34-12.58,47.12,47.12,0,0,0-3-10.87A25.91,25.91,0,0,1,481.9,132a34.69,34.69,0,0,0,3.86-21.73h0a30,30,0,0,0-3.71-6.3c1.87,6.09-5.26,16-6.81,18.31,1.94-3.39,8.64-15.08,4.58-21a12.29,12.29,0,0,0-2-1.58Z"/><path class="cls-16" d="M427.08,76.3c-.66.29-9.75-5.29-21.59-1.17a3.29,3.29,0,0,1,1,1s-5.1,1.08-7.44,2.64A3.64,3.64,0,0,1,400.56,80s-6.43,2.17-9.41,4.52a2.85,2.85,0,0,1,1.51,1.31,54,54,0,0,0-5.05,4,2.21,2.21,0,0,1,1.74.61,12.3,12.3,0,0,0-2.82,2.18,3.54,3.54,0,0,1,1.58.7,21.51,21.51,0,0,0-3.26,3.83,2.76,2.76,0,0,1,2,.25,10.67,10.67,0,0,0-1.87,4.27,2.73,2.73,0,0,1,2-.42s-1.9,3.59-1.88,5.73a2.12,2.12,0,0,1,1.85-.6s-1.31,3-1.08,4.58a4.63,4.63,0,0,1,1.88-.34,13.91,13.91,0,0,0-.82,4.91,4.94,4.94,0,0,1,1.77-.67,8.92,8.92,0,0,0-.25,3.86,1.72,1.72,0,0,1,1.44-.32,10.64,10.64,0,0,0-.25,4,2.18,2.18,0,0,1,1.79-.5,8,8,0,0,0-.11,3.25,1.67,1.67,0,0,1,1.26-.31,8.38,8.38,0,0,0,.09,3.67,4.41,4.41,0,0,1,1.34-.82,7.77,7.77,0,0,0,.32,3.4,1.4,1.4,0,0,1,1.36-.4,23.84,23.84,0,0,0-.36,3.52c1.19-.14,4.25-2.66,4.25-2.66a2.21,2.21,0,0,1,.07,1.62c-.3.86,3.08-2.37,3.08-2.37a6.24,6.24,0,0,1,.15,1.71,14.63,14.63,0,0,0,3-2.53s.35.15.31,1.18a7.93,7.93,0,0,0,3.33-2.37s0,.26,0,1.46a9.14,9.14,0,0,0,3.25-2.29,4,4,0,0,0,0,1.72,11.06,11.06,0,0,0,2.78-2.87s0,.77.16,1.7a12.62,12.62,0,0,0,3.4-2.89,3.91,3.91,0,0,1,.59,1.6,5.13,5.13,0,0,0,2.69-2.93,4.26,4.26,0,0,1,1.17,1.23c1.67-1.19,2.13-4.3,2.13-4.3a9.48,9.48,0,0,1,1.51,1.13,12.12,12.12,0,0,0,1-4.32,5.06,5.06,0,0,1,1.69,1.39,16.53,16.53,0,0,0,.83-4.58,4.33,4.33,0,0,1,1.6,1.39,14.92,14.92,0,0,0,1-4.59,3,3,0,0,1,1.43,1.4,12.64,12.64,0,0,0,.67-4.22,5.35,5.35,0,0,1,.68.54.64.64,0,0,0,1.08-.43,13.48,13.48,0,0,0-.05-2.25l.36.18a.64.64,0,0,0,.95-.63,18.59,18.59,0,0,0-.61-3l1.16.8a32.94,32.94,0,0,0-.35-3.86.58.58,0,0,1,.73-.63l.54.17a17.4,17.4,0,0,0-.88-4.4,6.55,6.55,0,0,0,1.46.1,19.26,19.26,0,0,0-1.79-4.29,1,1,0,0,1,.84-1.4,28.11,28.11,0,0,0-4.92-8.07,5.51,5.51,0,0,1,.94-8.37c1.65-1.1,3.5-2.28,5.49-3.46,0-1.15-.07-2.26-.17-3.3C433.23,71.36,427.76,76.08,427.08,76.3Z"/><path class="cls-17" d="M425.45,78.69c-.61.22-4.07,2.16-4.07,2.16-8.45.09-18.57,5.44-20.62,7.26,2.31-1.31,11.3-5.47,19-5.82a41.1,41.1,0,0,0-6.62,7.21c-6.82,1.89-16.66,9.72-17.81,13.24,2-2.81,10.51-9.63,16.77-11.64a63.13,63.13,0,0,0-6,10.29c-4.46,3.6-9.81,9.45-10.5,12.59,2-3.35,9.45-10.1,9.45-10.1s-4.87,11.66-3.54,18.71a54.64,54.64,0,0,1,3.45-16c.05,4.21.67,6.86,2.93,12.07a45.31,45.31,0,0,1-1.68-14.9,52.94,52.94,0,0,1,5.95-11.23,29.17,29.17,0,0,0,1.23,21.53,39.12,39.12,0,0,1,1.1-24.86h0a34.54,34.54,0,0,1,5.64-6c-3.56,6.24,1.86,18.85,3,21.81-1.3-4.2-5.79-18.7.13-24.23a13.53,13.53,0,0,1,2.53-1.26Z"/><path class="cls-18" d="M454.36,80.53a76.8,76.8,0,0,0-26.2,45.59c-3.46,20.09.67,40.42,4.13,60.21,5.24,30,6.94,63.84-5.15,92.79-3.51,8.39-10.68,17.37-20.74,17.13-4.61-.11-9.39-2.46-11.68-6.56-2.49-4.45-1.39-11,3.55-13.24s10.8.9,10.23,6.56c-.52,5.25-8,6.8-10.3,1.93"/><path class="cls-19" d="M456.37,77.61c-24.18,26.74-23.18,65-19.11,98.42,2.35,19.27,5.6,38.53,5.33,58-.12,8.65-.7,17.78-4.67,25.64-3.48,6.89-10.07,12.44-18,13.07a14.87,14.87,0,0,1-16-14.64c-.16-9,8.71-15.87,17.41-14.34"/><path class="cls-20" d="M450.54,231.39a3.25,3.25,0,0,1,2.36,4.16c-.74,2.32-3.81,2.65-5.67,1.54-4-2.38-2-8.23,1.59-9.82a8.65,8.65,0,0,1,8.93,1.31c2.71,2.39,3.15,6.47,2.07,9.75-2.71,8.26-13,9.48-19.84,5.87s-11.46-11-13.91-18.23c-5.09-15-2.19-31.39,2.62-46,5.34-16.22,13-31.76,15.76-48.75a97.16,97.16,0,0,0-6.8-53.87"/><path class="cls-21" d="M429.62,70.36a66.51,66.51,0,0,1-5.18,58.88c-5.47,8.78-13.6,16.64-24.28,18.1-10,1.38-22.68-5.38-21.87-16.85a9.47,9.47,0,0,1,4.72-7.87,6.77,6.77,0,0,1,8.09,1.15,5.24,5.24,0,0,1-.27,7.4,4.26,4.26,0,0,1-6.93-2.64"/><path class="cls-22" d="M364.45,63.68a7,7,0,0,0-4.4,3.24,1.2,1.2,0,0,0,.88,1.76,2.82,2.82,0,0,0,1.12,0,19.45,19.45,0,0,0,2.61-.63,42.34,42.34,0,0,0,4.21-1.81C371.42,65,374.23,63.94,377,64a.85.85,0,0,0,.62-1.47l-.08-.07c-2.91-2.54-7.07-2.94-10.72-2.1A23.18,23.18,0,0,0,361,62.75,19.78,19.78,0,0,0,356,66.24c-1.42,1.55-2.13,4.42.17,5.58,2,1,4.13,0,5.88-1,.73-.45,1.46-.92,2.18-1.39q-.59.18-1.17.3c-1.62.32-5,.45-4.55-2.16.41-2.35,3.73-3.91,5.76-4.39C365.07,63,365.25,63.49,364.45,63.68Z"/><path class="cls-22" d="M421.63,70.85c-2.16-2-4.25-4.08-6.56-5.89-2-1.57-4.55-2.83-7.18-2.38a5.6,5.6,0,0,0-2.37,1,22.81,22.81,0,0,0,1.4-9.59c-.45-3.85-2.5-7.47-6.18-9-4.27-1.78-9.7-.77-13.29-4-.52-.39-.73-.81-1.26,0-4.37,5-15.88,3.81-16.73,11.79a22,22,0,0,0-3.67.4.14.14,0,0,0,0-.06c-1-2.28-2.25-4.64-4.56-5.86a5.24,5.24,0,0,0-6.17.88c-1.82,1.7-2.44,4.13-3,6.45a29,29,0,0,1-2.9,7.3,27.43,27.43,0,0,1-11.66,10.92c-4.16,2-9.12,3.8-9.34,9.2a7.6,7.6,0,0,0,6.06,7.72A12.11,12.11,0,0,0,329,95.55c-1,2.47-1.26,6.86,2.31,7.29,1.7.2,3.15-.76,4.45-1.72a25.4,25.4,0,0,1,3.65-2.25c4.34-.75,8.61,1.52,11.67,4.55,3.62,3.57,6,8.14,9.2,12.06,2.67,3.27,6,6.15,10.23,7.18,4.7,1.15,9.08-.92,12.72-3.79,4.62-3.64,8.75-9,15-9.5l.11,0a.55.55,0,0,0,.53-.51,27.11,27.11,0,0,0,.35-5.1,9,9,0,0,0,10.58-3.94c1.32-2.24,1.86-4.84,3-7.18a25.64,25.64,0,0,1,4.43-6.52,29.06,29.06,0,0,1,6.23-4.92c1.57-1,3.32-2.3,3.12-4.36C426.31,74.3,423.33,72.4,421.63,70.85ZM369.63,54c.76,0,1,0,1.06-.53,0,0,0,0,0,0,.06-4.08,4.33-6,7.64-7.06,3.06-1,6.26-1.89,8.52-4.26,2.58,2.18,6.07,2.48,9.32,3a13,13,0,0,1,5.82,2,9.23,9.23,0,0,1,3.23,4.94c1.25,4.25-.09,8.71-1.47,12.75-1.3,3.81-2.69,7.61-2.74,11.68,0,2.63.45,6.33-.57,9.09a1.73,1.73,0,0,1-3.31-.32,11,11,0,0,0-.38-1.47c-.9-2.68-3.13-4.71-3.82-7.44a5.93,5.93,0,0,1,1.15-4.9,23.5,23.5,0,0,0,3.52-7.41c1.14-4.56,1.05-12.68-5.17-13.33-.82-.09-.74.52.08.6,3.56.38,4.36,4.8,4.39,7.85a18.7,18.7,0,0,1-1.9,8.31c-1.08,2.24-3.2,4.22-3.48,6.78a.07.07,0,0,0,0,0,.82.82,0,0,1-1.55.29.14.14,0,0,0,0-.06,8.89,8.89,0,0,1-.5-4.37,29.28,29.28,0,0,0-.11-4.29c-.14-1.63-.38-3.25-.65-4.86a8.55,8.55,0,0,0-2.27-5.13,4.54,4.54,0,0,0-4.64-1.06c-.78.28-.6.76.18.48,2.43-.88,4.49,2.14,5.1,4.2a34.43,34.43,0,0,1,.92,6.16c.38,3.9.37,8.06-1.61,11.56s-5.72,5.15-8,8.23a18.16,18.16,0,0,0-2,3.47,1.67,1.67,0,0,1-3.17-.89,18.61,18.61,0,0,1,3.14-7.22c3.32-5,8.05-11.91,3.56-17.76a10.69,10.69,0,0,0-4.53-3.39,2,2,0,0,1-1-2.82c1.16-2,3.85-3,6.06-3.41A21.79,21.79,0,0,0,389,50.13c.68-.47.2-.79-.48-.32-3.44,2.38-7.85,1.69-11.57,3.31-2.39,1-4.4,3.13-4.48,5.78a12.86,12.86,0,0,0-1.86-.17c-4.09-.1-8,1.5-11.41,3.58-2.44,1.48-5.75,3.68-5.82,6.79a6.58,6.58,0,0,1-.5-2,9.5,9.5,0,0,1,2.65-7A19.71,19.71,0,0,1,369.63,54Zm25.76,29.81a8.07,8.07,0,0,1-7.49,10.77c-2.83.08-5.71.55-8.46.34a31.18,31.18,0,0,1-3.51-.47,17.51,17.51,0,0,1,5.75-10.7c1.67-1.48,3.56-2.75,4.92-4.54A13.61,13.61,0,0,0,388.7,75c1.15,2.28,3.56,4.22,5.1,6.1A10,10,0,0,1,395.39,83.84Zm-22.32,10c-4.16-1.1-8.19-2.76-12.28-4.17-.62-3.59-3.7-5.79-6.74-7.44-3.23-1.75-8-4.15-7.61-8.42a14.25,14.25,0,0,0,10.78.84,24.15,24.15,0,0,0,5.49-2.7l.19-.1.12-.09a66.77,66.77,0,0,1,6.73-4.06A14.18,14.18,0,0,1,376,66.06a5.6,5.6,0,0,1,3.35.86c1.15.91,1,2.62.75,3.9-.82,4.31-4,7.64-6.18,11.33C371.91,85.65,370.76,90.25,373.07,93.82Zm-8.8-30.62c-2,.48-5.35,2-5.76,4.39-.46,2.61,2.93,2.48,4.55,2.16q.58-.12,1.17-.3c-.72.47-1.45.94-2.18,1.39-1.75,1-3.92,2-5.88,1-2.3-1.16-1.59-4-.17-5.58A19.78,19.78,0,0,1,361,62.75a23.18,23.18,0,0,1,5.88-2.35c3.65-.84,7.81-.44,10.72,2.1l.08.07A.85.85,0,0,1,377,64c-2.78-.1-5.59,1-8.14,2.16A42.34,42.34,0,0,1,364.66,68a19.45,19.45,0,0,1-2.61.63,2.82,2.82,0,0,1-1.12,0,1.2,1.2,0,0,1-.88-1.76,7,7,0,0,1,4.4-3.24C365.25,63.49,365.07,63,364.27,63.2ZM329.51,81c.94-4.67,6.36-5.77,9.94-7.78a28.62,28.62,0,0,0,9.11-8.13A32.42,32.42,0,0,0,353.48,54c.67-2.53,2-6.05,5.15-6.11s4.78,3.2,5.89,5.59C360,54.58,355.73,57.1,353.25,61c-2.3,3.6-2.25,8.82,1,11.44a.91.91,0,0,1-.5,1.62h0a13,13,0,0,1-7.45-1.81c-.39-.22-.86.11-1,.62-.75,3.68,1.85,6.76,4.77,8.6,1,.63,2.16,1.22,3.32,1.85A2.18,2.18,0,0,1,352,87.36c-.36-.06-.72-.1-1.08-.14-4.52-.52-10.06-.41-14.58,1.42A6.46,6.46,0,0,1,329.51,81Zm68.19,27.18c-5,.62-8.87,4.1-12.51,7.36-3.89,3.49-8.53,7.15-14.11,6-10-2.1-13.23-13.88-20.17-20a16.69,16.69,0,0,0-1.33-1.06,2.37,2.37,0,0,1,1.41-4.3,15.88,15.88,0,0,1,2.41.21c1.39.23,1.72-.71,0-.9a29.79,29.79,0,0,0-9.7.38A19.29,19.29,0,0,0,338.06,98c-2,1.22-4.65,4.63-7.27,3.36-1.68-.82-1.35-3.33-.86-4.75,2.58-7.35,12.24-8.72,19-8.32a49.8,49.8,0,0,1,13.75,3.32,94.15,94.15,0,0,0,12.67,4,30.26,30.26,0,0,0,6.22.64c2.7,0,5.38-.52,8.08-.4s5.58.95,7.13,3.29C398.49,101.78,398.12,105.18,397.7,108.14Zm27.3-30c-.86,1.57-3,2.37-4.45,3.35a27,27,0,0,0-4.47,3.94A30.54,30.54,0,0,0,410,96.19c-.81,2.23-1.81,4.38-3.93,5.64a7.8,7.8,0,0,1-6.93.51h0a8,8,0,0,0-4.32-6.49,10.87,10.87,0,0,0-1-.44,11.45,11.45,0,0,0,3.14-5.23c5.74-1.1,5.45-5.33,5.48-8.9,0-2.47-.32-5,.09-7.45a26.88,26.88,0,0,1,1.31-4.66,11.23,11.23,0,0,1,2-4.12,4.62,4.62,0,0,1,3.76-1.24c2.31.24,4.22,1.68,5.91,3.17,1.87,1.64,3.7,3.35,5.54,5C422.47,73.35,426.29,75.81,425,78.15Z"/><path class="cls-22" d="M355.5,60.13a9.5,9.5,0,0,0-2.65,7,6.58,6.58,0,0,0,.5,2c.07-3.11,3.38-5.31,5.82-6.79,3.45-2.08,7.32-3.68,11.41-3.58a12.86,12.86,0,0,1,1.86.17c.08-2.65,2.09-4.75,4.48-5.78,3.72-1.62,8.13-.93,11.57-3.31.68-.47,1.16-.15.48.32a21.79,21.79,0,0,1-8.61,3.32c-2.21.43-4.9,1.45-6.06,3.41a2,2,0,0,0,1,2.82,10.69,10.69,0,0,1,4.53,3.39c4.49,5.85-.24,12.78-3.56,17.76a18.61,18.61,0,0,0-3.14,7.22,1.67,1.67,0,0,0,3.17.89,18.16,18.16,0,0,1,2-3.47c2.32-3.08,6.13-4.82,8-8.23s2-7.66,1.61-11.56a34.43,34.43,0,0,0-.92-6.16c-.61-2.06-2.67-5.08-5.1-4.2-.78.28-1-.2-.18-.48a4.54,4.54,0,0,1,4.64,1.06A8.55,8.55,0,0,1,388.69,61c.27,1.61.51,3.23.65,4.86a29.28,29.28,0,0,1,.11,4.29,8.89,8.89,0,0,0,.5,4.37.14.14,0,0,1,0,.06.82.82,0,0,0,1.55-.29.07.07,0,0,1,0,0c.28-2.56,2.4-4.54,3.48-6.78a18.7,18.7,0,0,0,1.9-8.31c0-3-.83-7.47-4.39-7.85-.82-.08-.9-.69-.08-.6,6.22.65,6.31,8.77,5.17,13.33a23.5,23.5,0,0,1-3.52,7.41,5.93,5.93,0,0,0-1.15,4.9c.69,2.73,2.92,4.76,3.82,7.44a11,11,0,0,1,.38,1.47,1.73,1.73,0,0,0,3.31.32c1-2.76.54-6.46.57-9.09.05-4.07,1.44-7.87,2.74-11.68,1.38-4,2.72-8.5,1.47-12.75A9.23,9.23,0,0,0,402,47.14a13,13,0,0,0-5.82-2c-3.25-.51-6.74-.81-9.32-3-2.26,2.37-5.46,3.27-8.52,4.26-3.31,1.07-7.58,3-7.64,7.06,0,0,0,0,0,0,0,.57-.3.51-1.06.53A19.71,19.71,0,0,0,355.5,60.13Z"/><path class="cls-22" d="M388.7,75a13.61,13.61,0,0,1-2.1,4.25c-1.36,1.79-3.25,3.06-4.92,4.54a17.51,17.51,0,0,0-5.75,10.7,31.18,31.18,0,0,0,3.51.47c2.75.21,5.63-.26,8.46-.34a8.07,8.07,0,0,0,7.49-10.77,10,10,0,0,0-1.59-2.75C392.26,79.21,389.85,77.27,388.7,75Z"/><path class="cls-22" d="M373.94,82.15c2.14-3.69,5.36-7,6.18-11.33.24-1.28.4-3-.75-3.9a5.6,5.6,0,0,0-3.35-.86,14.18,14.18,0,0,0-6.27,1.62A66.77,66.77,0,0,0,363,71.74l-.12.09-.19.1a24.15,24.15,0,0,1-5.49,2.7,14.25,14.25,0,0,1-10.78-.84c-.38,4.27,4.38,6.67,7.61,8.42,3,1.65,6.12,3.85,6.74,7.44,4.09,1.41,8.12,3.07,12.28,4.17C370.76,90.25,371.91,85.65,373.94,82.15Zm-6.9-.83c-5.31,1.35-10.11-4.4-15.36-4-.83.07-.82-.16,0-.22,4.73-.38,8.67,3,13.33,2.93,6-.08,7.21-6.64,7.77-11.31.09-.82.46-.81.36,0C372.59,73.42,372.41,80,367,81.32Z"/><path class="cls-22" d="M373.14,68.74c.1-.82-.27-.83-.36,0C372.22,73.4,371,80,365,80c-4.66.07-8.6-3.31-13.33-2.93-.82.06-.83.29,0,.22,5.25-.41,10.05,5.34,15.36,4S372.59,73.42,373.14,68.74Z"/><path class="cls-22" d="M350.92,87.22c.36,0,.72.08,1.08.14a2.18,2.18,0,0,0,1.37-4.07c-1.16-.63-2.32-1.22-3.32-1.85-2.92-1.84-5.52-4.92-4.77-8.6.1-.51.57-.84,1-.62A13,13,0,0,0,353.69,74h0a.91.91,0,0,0,.5-1.62c-3.22-2.62-3.27-7.84-1-11.44,2.48-3.87,6.75-6.39,11.27-7.53-1.11-2.39-2.8-5.65-5.89-5.59s-4.48,3.58-5.15,6.11a32.42,32.42,0,0,1-4.92,11.09,28.62,28.62,0,0,1-9.11,8.13c-3.58,2-9,3.11-9.94,7.78a6.46,6.46,0,0,0,6.83,7.68C340.86,86.81,346.4,86.7,350.92,87.22Z"/><path class="cls-22" d="M389.63,95.9c-2.7-.12-5.38.39-8.08.4a30.26,30.26,0,0,1-6.22-.64,94.15,94.15,0,0,1-12.67-4,49.8,49.8,0,0,0-13.75-3.32c-6.74-.4-16.4,1-19,8.32-.49,1.42-.82,3.93.86,4.75,2.62,1.27,5.25-2.14,7.27-3.36a19.29,19.29,0,0,1,5.65-2.17,29.79,29.79,0,0,1,9.7-.38c1.71.19,1.38,1.13,0,.9a15.88,15.88,0,0,0-2.41-.21,2.37,2.37,0,0,0-1.41,4.3,16.69,16.69,0,0,1,1.33,1.06c6.94,6.07,10.2,17.85,20.17,20,5.58,1.17,10.22-2.49,14.11-6,3.64-3.26,7.48-6.74,12.51-7.36.42-3,.79-6.36-.94-9C395.21,96.85,392.3,96,389.63,95.9Zm4.13,5c-3.73-3.29-8.43,1.26-10.9,3.95-4.05,4.42-9.77,10.36-15.64,4.33-2.21-2.26-3.39-5.32-4.78-8.07-1-2-2.42-4.1-4.82-4.52-.81-.14-.67-.84.15-.69,3.7.65,5.4,4.1,6.91,7.14a11.37,11.37,0,0,0,4.2,5.09,8.47,8.47,0,0,0,9.43-.8c2.55-1.9,4.38-4.66,6.9-6.55s6.34-2.77,9-.46C394.79,100.84,394.38,101.42,393.76,100.87Z"/><path class="cls-22" d="M415.46,67c-1.69-1.49-3.6-2.93-5.91-3.17A4.62,4.62,0,0,0,405.79,65a11.23,11.23,0,0,0-2,4.12,26.88,26.88,0,0,0-1.31,4.66c-.41,2.45-.06,5-.09,7.45,0,3.57.26,7.8-5.48,8.9a11.45,11.45,0,0,1-3.14,5.23c.33.13,5.07,1.83,5.32,6.93h0a7.8,7.8,0,0,0,6.93-.51c2.12-1.26,3.12-3.41,3.93-5.64a30.54,30.54,0,0,1,6.06-10.75,27,27,0,0,1,4.47-3.94c1.41-1,3.59-1.78,4.45-3.35,1.29-2.34-2.53-4.8-4-6.15C419.16,70.32,417.33,68.61,415.46,67Z"/><path class="cls-22" d="M385.21,100.75c-2.52,1.89-4.35,4.65-6.9,6.55a8.47,8.47,0,0,1-9.43.8,11.37,11.37,0,0,1-4.2-5.09c-1.51-3-3.21-6.49-6.91-7.14-.82-.15-1,.55-.15.69,2.4.42,3.8,2.5,4.82,4.52,1.39,2.75,2.57,5.81,4.78,8.07,5.87,6,11.59.09,15.64-4.33,2.47-2.69,7.17-7.24,10.9-3.95.62.55,1,0,.41-.58C391.55,98,387.78,98.82,385.21,100.75Z"/><path class="cls-22" d="M379,84.77c-1.39,1.68-2.91,4.09-2.88,6.44a.58.58,0,0,0-.43.69,6.17,6.17,0,0,0,.24.94,1.11,1.11,0,0,0-.7,1.68,1.55,1.55,0,0,0,1.05.71c.43.1.95,0,1.31.28a.6.6,0,0,0,.92-.31,6.42,6.42,0,0,0,4.29.77c.79-.15.19-1.12-.61-1a4.09,4.09,0,0,1-4.82-4,8.67,8.67,0,0,1,2.64-5.53C380.59,84.85,379.55,84.16,379,84.77Z"/><path class="cls-23" d="M452.05,104.73a3.57,3.57,0,0,1,3.43-5.38c2.78.26,3.79,3.3,2.48,5.54s-4.13,2.55-6.28,1.66a7.78,7.78,0,0,1-4.25-5.24c-1.15-4.19.16-9,2-12.84s4.44-8.08,7.74-10.57"/><path class="cls-22" d="M495.15,58.86a6.65,6.65,0,0,0-4.92-1.53,1.13,1.13,0,0,0-.85,1.65,2.71,2.71,0,0,0,.65.82A17,17,0,0,0,492,61.44c1.18.82,2.46,1.48,3.71,2.18,2.31,1.28,4.71,2.8,6.18,5a.81.81,0,0,0,1.47-.35.31.31,0,0,1,0-.1c.31-3.62-1.7-7-4.36-9.3a21.21,21.21,0,0,0-5.07-3.15,18.57,18.57,0,0,0-5.41-1.82c-2-.22-4.56.84-4.16,3.23.33,2,2.28,3.14,4,3.92.75.3,1.52.59,2.28.88a9,9,0,0,1-.88-.73c-1.15-1-3.13-3.54-.88-4.65,2-1,5.06.66,6.55,1.93C496,59,495.75,59.37,495.15,58.86Z"/><path class="cls-22" d="M521.48,106.23c.3-2.74.75-5.5.84-8.26.08-2.4-.37-5-2.17-6.77A5.31,5.31,0,0,0,518.08,90a21.53,21.53,0,0,0,8.09-4.28c2.69-2.47,4.31-6,3.44-9.69-1-4.23-4.8-7.79-4.32-12.32,0-.61.21-1-.71-.94-6.24-.55-11.75-9.93-18.3-6.14A22.55,22.55,0,0,0,503.93,54l0,0c1.16-2.07,2.29-4.29,1.94-6.73a4.9,4.9,0,0,0-4.11-4.18c-2.31-.44-4.5.44-6.61,1.28A27.42,27.42,0,0,1,488,46.22a26,26,0,0,1-14.82-2.78c-3.86-2-8-4.8-12.21-2a7.13,7.13,0,0,0-2.52,8.88,11.59,11.59,0,0,0-7.35-.68c-2.46.59-5.93,2.86-4.27,5.81.78,1.4,2.33,2,3.78,2.42a23.51,23.51,0,0,1,3.75,1.51c3,2.88,3.62,7.38,3,11.38-.72,4.74-2.87,9.09-4.08,13.69-1,3.85-1.35,8,.2,11.75,1.73,4.21,5.75,6.38,10,7.54,5.35,1.48,11.7,1.67,15.61,6.13l.09.08a.53.53,0,0,0,.68.12,27,27,0,0,0,4.09-2.58,8.52,8.52,0,0,0,8.89,5.84c2.44-.25,4.72-1.29,7.12-1.75a24.43,24.43,0,0,1,7.44-.27,27.1,27.1,0,0,1,7.22,2c1.61.65,3.6,1.23,5.06-.07C521.45,111.7,521.24,108.38,521.48,106.23ZM505.4,57.43c.44.56.53.8,1,.51l0,0c3.14-2.22,7,0,9.63,1.87,2.47,1.77,4.92,3.7,8,4.1-.23,3.17,1.48,6,2.9,8.73a12.1,12.1,0,0,1,1.71,5.53,8.8,8.8,0,0,1-2,5.2c-2.55,3.31-6.71,4.77-10.56,6-3.63,1.14-7.3,2.19-10.43,4.42-2,1.44-4.59,3.86-7.25,4.62a1.62,1.62,0,0,1-1.6-2.69,10.85,10.85,0,0,0,.91-1.1c1.55-2.17,1.84-5,3.55-7a5.62,5.62,0,0,1,4.38-1.86,22.49,22.49,0,0,0,7.61-1.45c4.12-1.67,10.26-6.25,7.3-11.33-.39-.67-.81-.28-.42.39,1.7,2.91-1.23,6-3.54,7.7a17.92,17.92,0,0,1-7.4,3.18c-2.31.42-5-.09-7.11,1.12l0,0a.77.77,0,0,1-1.08-1l0,0a8.33,8.33,0,0,1,3.06-2.8A29.53,29.53,0,0,0,507.31,79c1.16-1,2.26-2.09,3.35-3.19a8.1,8.1,0,0,0,2.65-4.57,4.26,4.26,0,0,0-1.77-4.11c-.65-.44-.92,0-.27.4,2,1.35.86,4.6-.36,6.2a32.87,32.87,0,0,1-4.21,4.13C504,80.28,500.76,82.58,497,83s-7.11-1.48-10.75-1.53a17,17,0,0,0-3.78.4,1.56,1.56,0,0,1-1.07-2.9,17.43,17.43,0,0,1,7.25-1.63c5.65-.26,13.57-.52,15.53-7.18a9.91,9.91,0,0,0,.07-5.32,1.87,1.87,0,0,1,1.59-2.33c2.15-.22,4.42,1.26,6,2.7a20.54,20.54,0,0,0,7.32,4.68c.73.25.71-.29,0-.54-3.72-1.28-5.65-5-9-6.94-2.12-1.24-4.83-1.6-6.9-.18a12.87,12.87,0,0,0-.91-1.51c-2.2-3.15-5.58-5.2-9.08-6.66-2.48-1-6-2.32-8.42-.64A6.59,6.59,0,0,1,486.06,52a9,9,0,0,1,6.82-1.88A18.5,18.5,0,0,1,505.4,57.43ZM497,93.54a7.64,7.64,0,0,1-12.38.31,74.1,74.1,0,0,1-5-6.23A30.6,30.6,0,0,1,478,84.7a16.67,16.67,0,0,1,11.37-1.59,31.17,31.17,0,0,0,6.2,1.2,12.79,12.79,0,0,0,4.41-.76c-1.11,2.14-1.24,5-1.83,7.27A9,9,0,0,1,497,93.54Zm-20-11.37c-1.47-3.77-2.44-7.75-3.64-11.64,2.39-2.46,2.36-6,1.93-9.25-.46-3.42-1.28-8.37,2.2-10.45a13.26,13.26,0,0,0,5.35,8.64,23,23,0,0,0,5.11,2.67l.18.08.13,0a64.18,64.18,0,0,1,6.85,2.85A13.48,13.48,0,0,1,499.77,69,5.31,5.31,0,0,1,501,72c-.06,1.38-1.45,2.2-2.56,2.73-3.75,1.78-8.08,1.19-12.09,1.62C482.53,76.75,478.38,78.43,476.94,82.17Zm18.48-23.71c-1.49-1.27-4.54-2.92-6.55-1.93-2.25,1.11-.27,3.61.88,4.65a9,9,0,0,0,.88.73c-.76-.29-1.53-.58-2.28-.88-1.73-.78-3.68-1.88-4-3.92-.4-2.39,2.18-3.45,4.16-3.23a18.57,18.57,0,0,1,5.41,1.82A21.21,21.21,0,0,1,499,58.85c2.66,2.3,4.67,5.68,4.36,9.3a.31.31,0,0,0,0,.1.81.81,0,0,1-1.47.35c-1.47-2.18-3.87-3.7-6.18-5-1.25-.7-2.53-1.36-3.71-2.18A17,17,0,0,1,490,59.8a2.71,2.71,0,0,1-.65-.82,1.13,1.13,0,0,1,.85-1.65,6.65,6.65,0,0,1,4.92,1.53C495.75,59.37,496,59,495.42,58.46ZM462.54,42c4.08-1.88,7.94,1.61,11.46,3.21a27,27,0,0,0,11.27,2.39,30.69,30.69,0,0,0,11.21-2.43c2.3-.9,5.71-1.85,7.52.51s.22,5.41-1,7.58a17.56,17.56,0,0,0-12-4.37c-4,.26-8,3.2-8.2,7.1a.86.86,0,0,1-1.51.52l0,0a12.2,12.2,0,0,1-2.76-6.66c-.05-.42-.56-.59-1-.38-3.22,1.48-4.13,5.16-3.91,8.39.07,1.12.27,2.33.43,3.56a2.06,2.06,0,0,1-3.86,1.22c-.16-.3-.32-.6-.49-.9-2.12-3.71-5.28-7.86-9.2-10.27A6.07,6.07,0,0,1,462.54,42Zm17.17,66.84c-3.27-3.48-8.06-4.45-12.57-5.4-4.83-1-10.2-2.49-12.41-7.38-4-8.73,3.24-17.75,4-26.39.05-.53.07-1.06.07-1.6a2.24,2.24,0,0,1,4.06-1.32,14.06,14.06,0,0,1,1.18,2c.59,1.18,1.5.91.69-.49A27.74,27.74,0,0,0,459.06,61a17.87,17.87,0,0,0-4.8-3.08c-2.05-.85-6.12-1-6.6-3.65-.32-1.73,1.78-2.87,3.14-3.29,7.05-2.14,13.46,4.43,16.9,9.77a46.61,46.61,0,0,1,5.12,12.28,87.59,87.59,0,0,0,4,11.84,28.31,28.31,0,0,0,3,5.08c1.52,2,3.39,3.79,4.8,5.9s2.38,4.76,1.46,7.24C485,105.88,482.2,107.48,479.71,108.81Zm38.07,4c-1.68.22-3.5-1-5-1.51a25.26,25.26,0,0,0-5.5-1.21,29.3,29.3,0,0,0-11.57,1.39c-2.15.63-4.35,1.06-6.49.16a7.37,7.37,0,0,1-4.25-5,0,0,0,0,0,0,0,7.51,7.51,0,0,0,2.55-6.89,8.07,8.07,0,0,0-.22-1,10.94,10.94,0,0,0,5.74-.53c4,3.74,7.1,1.17,9.84-.79,1.9-1.35,3.63-3,5.74-4.08a25.64,25.64,0,0,1,4.29-1.59,10.5,10.5,0,0,1,4.23-.8,4.35,4.35,0,0,1,3,2.16c1.1,1.89,1.06,4.14.87,6.25-.22,2.33-.51,4.67-.77,7C520,108.26,520.29,112.52,517.78,112.84Z"/><path class="cls-22" d="M492.88,50.11A9,9,0,0,0,486.06,52a6.59,6.59,0,0,0-1.22,1.47c2.42-1.68,5.94-.39,8.42.64,3.5,1.46,6.88,3.51,9.08,6.66a12.87,12.87,0,0,1,.91,1.51c2.07-1.42,4.78-1.06,6.9.18,3.3,1.92,5.23,5.66,9,6.94.74.25.76.79,0,.54a20.54,20.54,0,0,1-7.32-4.68c-1.56-1.44-3.83-2.92-6-2.7a1.87,1.87,0,0,0-1.59,2.33,9.91,9.91,0,0,1-.07,5.32c-2,6.66-9.88,6.92-15.53,7.18A17.43,17.43,0,0,0,481.39,79a1.56,1.56,0,0,0,1.07,2.9,17,17,0,0,1,3.78-.4c3.64,0,7.09,2,10.75,1.53s7-2.76,9.71-5.21a32.87,32.87,0,0,0,4.21-4.13c1.22-1.6,2.38-4.85.36-6.2-.65-.43-.38-.84.27-.4a4.26,4.26,0,0,1,1.77,4.11,8.1,8.1,0,0,1-2.65,4.57c-1.09,1.1-2.19,2.18-3.35,3.19a29.53,29.53,0,0,1-3.21,2.48,8.33,8.33,0,0,0-3.06,2.8l0,0a.77.77,0,0,0,1.08,1l0,0c2.1-1.21,4.8-.7,7.11-1.12a17.92,17.92,0,0,0,7.4-3.18c2.31-1.72,5.24-4.79,3.54-7.7-.39-.67,0-1.06.42-.39,3,5.08-3.18,9.66-7.3,11.33a22.49,22.49,0,0,1-7.61,1.45,5.62,5.62,0,0,0-4.38,1.86c-1.71,2-2,4.86-3.55,7a10.85,10.85,0,0,1-.91,1.1,1.62,1.62,0,0,0,1.6,2.69c2.66-.76,5.22-3.18,7.25-4.62,3.13-2.23,6.8-3.28,10.43-4.42,3.85-1.2,8-2.66,10.56-6a8.8,8.8,0,0,0,2-5.2A12.1,12.1,0,0,0,527,72.62c-1.42-2.75-3.13-5.56-2.9-8.73-3.07-.4-5.52-2.33-8-4.1-2.65-1.91-6.49-4.09-9.63-1.87l0,0c-.46.29-.55.05-1-.51A18.5,18.5,0,0,0,492.88,50.11Z"/><path class="cls-22" d="M500,83.55a12.79,12.79,0,0,1-4.41.76,31.17,31.17,0,0,1-6.2-1.2A16.67,16.67,0,0,0,478,84.7a30.6,30.6,0,0,0,1.59,2.92,74.1,74.1,0,0,0,5,6.23A7.64,7.64,0,0,0,497,93.54a9,9,0,0,0,1.21-2.72C498.77,88.6,498.9,85.69,500,83.55Z"/><path class="cls-22" d="M486.33,76.34c4-.43,8.34.16,12.09-1.62,1.11-.53,2.5-1.35,2.56-2.73a5.31,5.31,0,0,0-1.21-3,13.48,13.48,0,0,0-4.72-3.85,64.18,64.18,0,0,0-6.85-2.85l-.13,0-.18-.08a23,23,0,0,1-5.11-2.67,13.26,13.26,0,0,1-5.35-8.64c-3.48,2.08-2.66,7-2.2,10.45.43,3.23.46,6.79-1.93,9.25,1.2,3.89,2.17,7.87,3.64,11.64C478.38,78.43,482.53,76.75,486.33,76.34Zm-3.2-5.7c-4-3.28-2.27-10.12-5.5-13.87-.51-.59-.33-.71.18-.12,2.91,3.38,2.53,8.24,5.17,11.74,3.38,4.48,9.08,1.78,12.95-.4.68-.38.87-.1.2.28C492.24,70.45,487.16,74,483.13,70.64Z"/><path class="cls-22" d="M496.13,68.27c.67-.38.48-.66-.2-.28-3.87,2.18-9.57,4.88-12.95.4-2.64-3.5-2.26-8.36-5.17-11.74-.51-.59-.69-.47-.18.12,3.23,3.75,1.51,10.59,5.5,13.87S492.24,70.45,496.13,68.27Z"/><path class="cls-22" d="M469.67,61.69c.17.3.33.6.49.9A2.06,2.06,0,0,0,474,61.37c-.16-1.23-.36-2.44-.43-3.56-.22-3.23.69-6.91,3.91-8.39.45-.21,1,0,1,.38a12.2,12.2,0,0,0,2.76,6.66l0,0A.86.86,0,0,0,482.8,56c.21-3.9,4.17-6.84,8.2-7.1a17.56,17.56,0,0,1,12,4.37c1.22-2.17,2.76-5.27,1-7.58s-5.22-1.41-7.52-.51a30.69,30.69,0,0,1-11.21,2.43A27,27,0,0,1,474,45.18c-3.52-1.6-7.38-5.09-11.46-3.21a6.07,6.07,0,0,0-2.07,9.45C464.39,53.83,467.55,58,469.67,61.69Z"/><path class="cls-22" d="M484.56,95.88c-1.41-2.11-3.28-3.87-4.8-5.9a28.31,28.31,0,0,1-3-5.08,87.59,87.59,0,0,1-4-11.84,46.61,46.61,0,0,0-5.12-12.28c-3.44-5.34-9.85-11.91-16.9-9.77-1.36.42-3.46,1.56-3.14,3.29.48,2.69,4.55,2.8,6.6,3.65a17.87,17.87,0,0,1,4.8,3.08,27.74,27.74,0,0,1,5.68,7.15c.81,1.4-.1,1.67-.69.49a14.06,14.06,0,0,0-1.18-2A2.24,2.24,0,0,0,458.81,68c0,.54,0,1.07-.07,1.6-.77,8.64-8,17.66-4,26.39,2.21,4.89,7.58,6.37,12.41,7.38,4.51,1,9.3,1.92,12.57,5.4,2.49-1.33,5.3-2.93,6.31-5.69C486.94,100.64,486,98,484.56,95.88Zm-1.5,5.9c.44-4.66-5.64-5.69-9.07-6.07-5.63-.62-13.33-1.65-12-9.46.5-2.93,2.17-5.53,3.5-8.11,1-1.9,1.78-4.12.77-6.16-.34-.7.27-1,.61-.28,1.56,3.16-.13,6.38-1.6,9.21a10.57,10.57,0,0,0-1.55,6,8,8,0,0,0,5.85,6.72c2.87.87,6,.73,8.84,1.59s5.64,3.26,5.33,6.54C483.67,102.54,483,102.55,483.06,101.78Z"/><path class="cls-22" d="M521,99.39c.19-2.11.23-4.36-.87-6.25a4.35,4.35,0,0,0-3-2.16,10.5,10.5,0,0,0-4.23.8,25.64,25.64,0,0,0-4.29,1.59c-2.11,1.06-3.84,2.73-5.74,4.08-2.74,2-5.8,4.53-9.84.79a10.94,10.94,0,0,1-5.74.53c.09.32,1.42,4.86-2.33,7.89a0,0,0,0,1,0,0,7.37,7.37,0,0,0,4.25,5c2.14.9,4.34.47,6.49-.16a29.3,29.3,0,0,1,11.57-1.39,25.26,25.26,0,0,1,5.5,1.21c1.53.52,3.35,1.73,5,1.51,2.51-.32,2.26-4.58,2.46-6.45C520.5,104.06,520.79,101.72,521,99.39Z"/><path class="cls-22" d="M478.41,95.23c-2.85-.86-6-.72-8.84-1.59a8,8,0,0,1-5.85-6.72,10.57,10.57,0,0,1,1.55-6c1.47-2.83,3.16-6,1.6-9.21-.34-.7-.95-.42-.61.28,1,2,.2,4.26-.77,6.16-1.33,2.58-3,5.18-3.5,8.11-1.33,7.81,6.37,8.84,12,9.46,3.43.38,9.51,1.41,9.07,6.07-.07.77.61.76.68,0C484.05,98.49,481.31,96.1,478.41,95.23Z"/><path class="cls-22" d="M487.16,81.66c-2.05-.12-4.73.07-6.51,1.4a.55.55,0,0,0-.76,0,6.33,6.33,0,0,0-.58.7,1.06,1.06,0,0,0-1.68.41,1.52,1.52,0,0,0,0,1.2c.17.37.52.72.52,1.14a.56.56,0,0,0,.75.53,6,6,0,0,0,1.79,3.68c.56.52,1-.48.4-1a3.85,3.85,0,0,1,.4-5.9,8.24,8.24,0,0,1,5.69-1.08C488,82.88,487.92,81.71,487.16,81.66Z"/><path class="cls-24" d="M389.16,40.65c5-2.44,8.11,3.66,9,7.5,1,4.15,1.55,8.14,4.09,11.71a19.27,19.27,0,0,0,2.59,3c-1.39,4.85,2.19,9.26,6.1,11.74,4.42,2.82,10.61,4.59,12.86,9.73.09,1.13.58,1,1.86.64,9.89-2.93,23.27,3,30.7-6.29a16.31,16.31,0,0,0,6.21-1.25C470.13,74.18,475.77,65,484.44,66c3.51.38.85-1.76.71-1.89-5.42-5.19-1.47-14.12-2.41-20.9a14.39,14.39,0,0,0-10.81-12.11c-.07-.58-.16-1.15-.28-1.7-1.62-7.6-7.52-15.87-3.53-23.68.51-1-1.05-1.54-1.61-.94-4,4.23-10,5.81-15.26,8.35A23.31,23.31,0,0,0,430.43.5c-.24,0-.74,0-.89.19s.12.76.21,1a5.57,5.57,0,0,1,.25,4.4A14.25,14.25,0,0,1,426.8,10c-1.95,1.92-3.81,4-4,6.85a36.83,36.83,0,0,0-12,1.26,22.11,22.11,0,0,0-5,2.08c-.54.33-2.43,1.6-.86,1.88,3.83.68,3.63,5.16,3.45,8.26a17.53,17.53,0,0,0-20.5,9C387.15,40.94,388.46,41,389.16,40.65Z"/><path class="cls-25" d="M434.08,21.83a15.64,15.64,0,0,0-7.91,8.1,2.89,2.89,0,0,1-5,.67,4.05,4.05,0,0,1-.61-1.21c-.5-1.6.4-4.21,2.1-4.45,1-.13.56-.7-.41-.56a4.18,4.18,0,0,0-3.18,5.41c.82,2.72,3.62,4.11,6.22,4.59,3.53.66,7.27.3,10.08,2.94a9.32,9.32,0,0,1,2.87,8.14,32.72,32.72,0,0,0-5.16,11.61c-2.69-.66-5.4-1.31-8.07-2.07a8.63,8.63,0,0,0,.67-8.44,17.62,17.62,0,0,1-6.87-1,14.4,14.4,0,0,1-8.62-10.11c-.88-4.34,1.86-11.5-3-14.19A29.54,29.54,0,0,1,434.08,21.83Z"/><path class="cls-26" d="M415.86,45.78a16.19,16.19,0,0,0,8.63,2.33.25.25,0,0,1,0,.07A4,4,0,0,1,419.17,53L419,53c-2.29-.92-4.89-2.09-6.17-4.31l0,0A2.16,2.16,0,0,1,415.86,45.78Z"/><path class="cls-27" d="M445.16,24.52A13,13,0,0,1,450.49,35a40.25,40.25,0,0,0-7.1,4.7l0,0a3.1,3.1,0,0,1-4.79-.85,10.33,10.33,0,0,0-4.76-4.52,9.83,9.83,0,0,0-1.94-.65,9.53,9.53,0,0,1,2.9-6.33,4.78,4.78,0,0,0,1.64,4.39,5.84,5.84,0,0,0,8.69-1.76A5.7,5.7,0,0,0,445.16,24.52Z"/><path class="cls-28" d="M438.1,23.7a11.48,11.48,0,0,0-7.77,9.77c-1.18-.17-2.37-.24-3.55-.4a13,13,0,0,1,4.92-8c2.62-2,6.56-3.37,9.77-2,4.18,1.74,3.4,8.32-1.33,8.52A3.89,3.89,0,0,1,436.25,29c-.48-1.76.8-4.44,2.55-4.68C439.68,24.19,439.39,23.23,438.1,23.7Z"/><path class="cls-29" d="M449.88,13.77c-3.2,1.73-5.95,4-7.52,7.62-.22.43-.83,0-1,0a11.22,11.22,0,0,0-1.85-.37,27.35,27.35,0,0,1-7.61-1.91,30.67,30.67,0,0,0-7.51-2v0c.14-3.92,4.2-6,6.23-8.9a6.47,6.47,0,0,0,.91-6.08A21.82,21.82,0,0,1,449.88,13.77Z"/><path class="cls-30" d="M470.28,36.77c-.74,3.09-2.74,6.57-6,6.79-1.37.09-1.37,1.58-.16,1.85,3.35.73,1.3,6.13-1.16,7.67-3,1.88-6.82,1.37-10.12.77a31.38,31.38,0,0,0-10.71-.58A3.52,3.52,0,0,1,438.47,48a32.08,32.08,0,0,1,9.92-10.06c3.39-2.11,7.75-3.46,9.66-7.28,1.45-2.91.55-6.71-2.71-7.85-.94-.33-1.35.23-.41.56,2.3.8,2.74,4.51,1.79,6.5a8.53,8.53,0,0,1-.58,1,2.77,2.77,0,0,1-4.9-.62,14.55,14.55,0,0,0-7.46-8.34c2-4.73,7-7.18,11.45-9,3.67-1.51,7.47-2.94,10.56-5.43-1.58,5.8,1,11.81,2.92,17.36C470.05,28.61,471.23,32.77,470.28,36.77Z"/><path class="cls-31" d="M448.12,72.08c2.55-1.55,6.17-3.29,9-1.65,1.22.7,1.79.45.66-.9-4-4.75-9.36-7.64-15.08-9.68a2.68,2.68,0,0,1,.53-5.18,20,20,0,0,1,3.88-.13c4.1.25,8.08,1.78,12.23,1.29,3-.36,6.11-1.82,7.27-4.77a6,6,0,0,0-1-6.34,10,10,0,0,0,6-7.27,3.57,3.57,0,0,1,5.95-1.62A13.26,13.26,0,0,1,479,37.48c2,2.84,2.51,6.26,2.46,9.68-.09,5.86-1.29,12.17,2.16,17.3-6.87.57-11.89,5.61-17.42,9.23-3,2-6.42,3.61-10,3.54a.61.61,0,0,0-.42,0l-.3,0A8.39,8.39,0,0,1,448.12,72.08Z"/><path class="cls-32" d="M406.17,63.93a19.75,19.75,0,0,0,16.26,3.64c0,.09,4.8,9.7,16,9,3.23-.22,5.77-1.88,8.41-3.6a9.14,9.14,0,0,0,7.63,5.56c-3.58,3.55-8.88,4.19-13.8,4.11-5.2-.08-10.48-.71-15.51.88-1.88-4-5.88-6.2-9.69-8.19C411.19,73.08,405.17,69.42,406.17,63.93Z"/><path class="cls-33" d="M390,38.78A15.74,15.74,0,0,1,408.39,32a16.22,16.22,0,0,0,1.84,7.89l.09.18a6.09,6.09,0,0,1,.5,4.51A7.12,7.12,0,0,0,413,51.24a18.23,18.23,0,0,0,6.15,3.42,76.22,76.22,0,0,0,8.36,2.59c9.56,2.48,20.2,4.35,27.45,11.46-4.52-1-8.79,3.39-12.72,5.18-6.23,2.85-15.38-.71-18.33-6.79-.33-.69-.46-1.36-1.12-1.19a18,18,0,0,1-21.62-11.67c-1.32-4.08-1.26-8.68-3.9-12.26A7.51,7.51,0,0,0,390,38.78Z"/><path class="cls-34" d="M463.6,39.59c-4.58,2.83-12.16,2.47-15.44,7.19-.5.73-1,0-.5-.7,2.53-3.64,6.75-4.76,10.72-6.16,2.32-.81,4.76-1.83,6.41-3.73,2-2.29,3-5.53,1.62-8.2-.39-.8.11-1.5.51-.7A9.34,9.34,0,0,1,463.6,39.59Z"/><path class="cls-35" d="M426.42,131.52c-5.87,9.93-15.87,17.73-27.35,19.9-11.14,2.1-24.55-2.75-27.51-14.63-.18-.72-.53-.42-.35.3,2.91,11.67,15,17.21,26.16,15.76.59-.08,1.18-.17,1.76-.28-3.1,3.07-2.82,8.11-2.82,8.11,7-1.25,8.46-7.58,8.74-9.71a37.68,37.68,0,0,0,4-1.72c-2.88,4.16-.39,9.73-.39,9.73,6.14-3.68,5.19-10.12,4.7-12.19,1.17-.76,2.31-1.59,3.4-2.46-1.91,4.84,2.09,9.73,2.09,9.73,4.84-5,2.47-10.83,1.41-12.85a44.91,44.91,0,0,0,7.11-9.11A.57.57,0,0,0,426.42,131.52Z"/><path class="cls-36" d="M454.24,145c2.35-5.14-4-9.35-8.25-6.13-4.61,3.47-1.67,10.37,3.43,11.3a8.14,8.14,0,0,0,7.69-2.94,11,11,0,0,0,2-8.77c-.58-3.87-2.38-7.56-4-11.06s-3.56-7-5.16-10.64c-3.72-8.31-6.19-18.3-1.53-26.78"/><path class="cls-37" d="M469.54,228.1c5.12,7.36,2.79,18-4,23.54-7.95,6.56-20.12,5.42-28.22-.21-8.49-5.9-13.16-15.92-14.63-25.91-1.72-11.69.29-23.85,3.07-35.22A150,150,0,0,1,439.89,154"/><path class="cls-38" d="M46.76,275.08c-5,3.32-12.64.82-15.58-3.76-3.2-5-2.59-10.11-8-14-3.59-2.56-10.36-4.8-13.85-.68-3.19,3.76,1,9.56,5.93,7.51A3.49,3.49,0,0,1,11,266.6a.6.6,0,0,1-.53.27c1.05.81,4.22,1.82,6.32,1-4,6.75-15.65-.54-16.62-6-1.43-8.14,9.92-11,16.71-10.11s12.48,4.82,14.2,11c1.94,7,3.67,13.26,12.78,12.95Z"/><path class="cls-39" d="M43.81,272.8C35.49,273,32,264.68,32,258.16c0-3.34,1.66-6.36.51-9.63-.73-2.08-3.11-5.87-5-2.45,4.14,2.54-7.19,4.68-3.77-1.52,3.13-5.66,8.59-2.66,10.54,1.22.32-1.05.89-1.47,1.09-2.55A5.71,5.71,0,0,1,36,249c.44-.48,1.39-1,1.89-1.58,2.43,5.16-3.84,11.08-1.3,16.22-1.47-1.31-2.68-3-2.62-4.83-.69,5.25,3,11.34,8,13.64Z"/><path class="cls-40" d="M43.28,271.16c-1.18-1.1-7.72-5.7-6.37-10.29,1.2-4,6.22-7.29,10.47-6.17,4,1.07,6.88,5.39,3.69,8.7-3.6,3.74-7.69-1.7-3.37-3.17.22.68.81,1.23.72,2.12,4.46.58,1.48-5-.7-6.05a7.45,7.45,0,0,0-8.12,1.9c-2.12,2.41-1.53,7,.67,9.31,2.6,2.74,2.07,1.89,4.82,5A5.9,5.9,0,0,1,43.28,271.16Z"/><path class="cls-41" d="M38.55,255.09c2.11-3,5.56-1.56,8.09-3.73,1.93-1.64,1.8-4.41,1.65-6.61-3.8,1.13-7.23,3.55-8.64,7a8.8,8.8,0,0,1,4.5-1.56c-1.3.37-4,2.16-4.62,4Z"/><path class="cls-42" d="M38.87,247.46c0-2.8-1.87-4.46-1.06-7.33.46-1.6,1.67-3.06,2.46-4.53,5.48,2.5,3,8.38-.43,11.45,0-1.56,0-3.11,0-4.66a3.85,3.85,0,0,0-1,3.24Z"/><path class="cls-43" d="M33.64,242.28c-1.52-1.49-3.45-3.95-3.6-6.1-.14-1.94,1-2.82,1.38-4.54,3.77,2.5,3.59,6.28,3.2,10.07a8.26,8.26,0,0,0-2.24-3.65,11.36,11.36,0,0,0,1.26,4.52Z"/><rect class="cls-44" x="47.09" y="259.11" width="333.2" height="0.54"/><path class="cls-45" d="M722.42,278.08c5,3.32,12.64.81,15.58-3.76,3.19-5,2.59-10.11,8-14,3.59-2.57,10.36-4.8,13.84-.69,3.2,3.77-1,9.56-5.93,7.52a3.5,3.5,0,0,0,4.34,2.41.55.55,0,0,0,.53.27c-1,.82-4.22,1.83-6.33,1,4,6.75,15.66-.55,16.62-6,1.44-8.13-9.91-11-16.7-10.11s-12.48,4.83-14.21,11c-1.93,6.95-3.66,13.26-12.78,12.95Z"/><path class="cls-46" d="M725.36,275.8c8.32.24,11.84-8.13,11.78-14.64,0-3.35-1.66-6.36-.52-9.63.74-2.09,3.12-5.87,5-2.46-4.14,2.54,7.19,4.68,3.77-1.51-3.14-5.66-8.59-2.66-10.54,1.21-.32-1.05-.9-1.47-1.09-2.54a5.7,5.7,0,0,0-.59,5.71c-.43-.47-1.38-.95-1.89-1.57-2.42,5.16,3.85,11.08,1.3,16.22,1.48-1.32,2.68-3,2.63-4.83.69,5.25-3,11.34-8,13.64Z"/><path class="cls-47" d="M725.9,274.16c1.18-1.11,7.72-5.71,6.36-10.29-1.2-4-6.22-7.29-10.46-6.17-4,1.06-6.89,5.39-3.7,8.7,3.6,3.73,7.7-1.71,3.37-3.17-.21.68-.81,1.23-.71,2.12-4.46.57-1.49-5,.69-6.05a7.45,7.45,0,0,1,8.12,1.9c2.13,2.41,1.54,7-.66,9.31-2.6,2.74-2.07,1.89-4.82,4.95A5.7,5.7,0,0,0,725.9,274.16Z"/><path class="cls-48" d="M730.63,258.08c-2.11-3-5.56-1.56-8.1-3.72-1.93-1.64-1.8-4.41-1.65-6.61,3.8,1.12,7.24,3.55,8.64,7a8.75,8.75,0,0,0-4.5-1.57c1.31.37,4.06,2.16,4.63,4Z"/><path class="cls-49" d="M730.3,250.46c0-2.8,1.88-4.46,1.06-7.33-.46-1.6-1.66-3.06-2.45-4.53-5.49,2.5-3,8.38.43,11.44,0-1.55,0-3.1,0-4.66a3.9,3.9,0,0,1,1,3.25Z"/><path class="cls-50" d="M735.54,245.27c1.52-1.48,3.45-4,3.6-6.09.14-2-1-2.83-1.38-4.55-3.78,2.5-3.59,6.28-3.2,10.08a8.25,8.25,0,0,1,2.24-3.66,11.62,11.62,0,0,1-1.26,4.53Z"/><rect class="cls-51" x="481.9" y="262.11" width="240.18" height="0.54"/><text class="cls-52" transform="translate(213.69 354.27) scale(1.05 1)">VENEZUEL<tspan class="cls-53" x="294.54" y="0">A</tspan></text><path class="cls-54" d="M213.46,317.58h16.25v1.86H226.9a5,5,0,0,0-2.38.39,1.22,1.22,0,0,0-.63,1.07,4,4,0,0,0,.47,1.51l.21.53,10.17,24.58,9-23.47a4.88,4.88,0,0,0,.26-1.69,2.77,2.77,0,0,0-.85-2.15,3.34,3.34,0,0,0-2.34-.77h-2.63v-1.86h14.24v1.86h-1.14a3.91,3.91,0,0,0-2.6,1.16,10.19,10.19,0,0,0-2.34,3.85L234.4,355.14h-1.9l-13.63-32.8a5.11,5.11,0,0,0-1.64-2.27,4.41,4.41,0,0,0-2.52-.63h-1.25Z"/><path class="cls-55" d="M255.78,317.58h30.58l.73,12.38h-1.75q-1-5.86-3.29-8.19a7.8,7.8,0,0,0-5.88-2.33h-7.55a1.87,1.87,0,0,0-1.39.47,2,2,0,0,0-.46,1.44v13.07h3.3a5.55,5.55,0,0,0,4.31-1.81q1.65-1.82,1.78-5.56H278v17h-1.8c-.09-2.81-.69-4.83-1.81-6a5.89,5.89,0,0,0-4.57-1.83h-3v14.59a1.42,1.42,0,0,0,.56,1.22,3.15,3.15,0,0,0,1.86.42h6q9.72,0,11.2-11.81h1.88l-.65,13.67H255.78v-1.86h2.64a3.49,3.49,0,0,0,2.16-.51,1.78,1.78,0,0,0,.63-1.47V321.35a1.77,1.77,0,0,0-.55-1.44,2.58,2.58,0,0,0-1.72-.47h-3.16Z"/><path class="cls-56" d="M293.07,317.58h9.21l23.27,28.83V325.54a6.34,6.34,0,0,0-1.51-4.66,5.71,5.71,0,0,0-4.12-1.44v-1.86h13.51v1.86a6.84,6.84,0,0,0-3.09.54,4.57,4.57,0,0,0-1.78,2,6.61,6.61,0,0,0-.76,3.15v29.15h-2.46l-24.08-30V346.4a5.81,5.81,0,0,0,1.59,4.48,7.19,7.19,0,0,0,4.93,1.53v1.86H293.07v-1.86a6.23,6.23,0,0,0,4.38-1.72,5.42,5.42,0,0,0,1.62-4V321.86l-.46-.48a8.53,8.53,0,0,0-1.85-1.6,4.71,4.71,0,0,0-1.95-.34h-1.74Z"/><path class="cls-57" d="M337.92,317.58H368.5l.73,12.38h-1.75q-1-5.86-3.29-8.19a7.78,7.78,0,0,0-5.88-2.33h-7.55a1.83,1.83,0,0,0-1.38.47,1.92,1.92,0,0,0-.47,1.44v13.07h3.3a5.55,5.55,0,0,0,4.31-1.81q1.65-1.82,1.78-5.56h1.8v17h-1.8c-.09-2.81-.69-4.83-1.81-6a5.89,5.89,0,0,0-4.57-1.83h-3v14.59a1.42,1.42,0,0,0,.56,1.22,3.15,3.15,0,0,0,1.86.42h6q9.72,0,11.2-11.81h1.88l-.65,13.67H337.92v-1.86h2.64a3.49,3.49,0,0,0,2.16-.51,1.78,1.78,0,0,0,.63-1.47V321.35a1.77,1.77,0,0,0-.55-1.44,2.56,2.56,0,0,0-1.72-.47h-3.16Z"/><path class="cls-58" d="M376.93,317.58h26.28v1.86l-22,33h8.37a13.44,13.44,0,0,0,5.9-1.12,9,9,0,0,0,3.72-3.33,24.74,24.74,0,0,0,2.59-7.46h1.83l-.7,13.77H375v-1.66l22.27-33.17h-8a14.13,14.13,0,0,0-5.07.72,8.13,8.13,0,0,0-4,3.46,17.67,17.67,0,0,0-2.16,6.66H376.2Z"/><path class="cls-59" d="M407.09,317.58h17.83v1.86h-3.58a3.43,3.43,0,0,0-2,.44,1.64,1.64,0,0,0-.57,1.37V342a15.3,15.3,0,0,0,.6,4.91,7.55,7.55,0,0,0,3.24,3.92,11.6,11.6,0,0,0,6.16,1.46q5.26,0,8-2.59a9.07,9.07,0,0,0,2.76-6.94V325.89a13.69,13.69,0,0,0-.32-3.39,4.25,4.25,0,0,0-.94-1.8,3.63,3.63,0,0,0-1.56-.95,10.93,10.93,0,0,0-3.13-.31v-1.86h14.59v1.86h-1a4.87,4.87,0,0,0-3.66,1.25,5,5,0,0,0-1.2,3.63v18q0,5.91-3.55,9.06-4,3.54-10.61,3.55a21.59,21.59,0,0,1-9-1.55,9.87,9.87,0,0,1-4.78-4.46,12.18,12.18,0,0,1-1.12-5.56V321.25a1.6,1.6,0,0,0-.61-1.33,2.94,2.94,0,0,0-1.83-.48h-3.67Z"/><path class="cls-60" d="M452.7,317.58h30.59L484,330h-1.75q-1-5.86-3.3-8.19a7.77,7.77,0,0,0-5.87-2.33h-7.56a1.83,1.83,0,0,0-1.38.47,2,2,0,0,0-.47,1.44v13.07H467a5.55,5.55,0,0,0,4.31-1.81,8.47,8.47,0,0,0,1.78-5.56h1.8v17h-1.8c-.08-2.81-.69-4.83-1.81-6a5.87,5.87,0,0,0-4.56-1.83h-3v14.59a1.44,1.44,0,0,0,.56,1.22,3.15,3.15,0,0,0,1.86.42h6q9.72,0,11.21-11.81h1.87l-.65,13.67H452.7v-1.86h2.64a3.51,3.51,0,0,0,2.17-.51,1.8,1.8,0,0,0,.62-1.47V321.35a1.77,1.77,0,0,0-.55-1.44,2.56,2.56,0,0,0-1.72-.47H452.7Z"/><path class="cls-61" d="M489.47,317.58h17.9v1.86h-4.28a2,2,0,0,0-1.5.5,2.3,2.3,0,0,0-.48,1.61V350.5a1.68,1.68,0,0,0,.61,1.48,4.71,4.71,0,0,0,2.46.43h5.42a9.61,9.61,0,0,0,7.08-2.74q2.75-2.75,4-9.52h1.82l-.88,14.12H489.47v-1.86h3.16a3.42,3.42,0,0,0,2.27-.58,2.43,2.43,0,0,0,.65-1.88V321.3a1.72,1.72,0,0,0-.55-1.39,2.37,2.37,0,0,0-1.62-.47h-3.91Z"/><path class="cls-62" d="M542.12,316.81h1.74l13.84,33.57a3.33,3.33,0,0,0,3.42,2h1.2v1.86H546.93v-1.86h1.22a8.05,8.05,0,0,0,3.39-.5,1.11,1.11,0,0,0,.68-1.06,2.57,2.57,0,0,0-.18-.9l-3.19-7.79H533.58l-1.79,4.47a8.24,8.24,0,0,0-.7,2.83,2.52,2.52,0,0,0,1.18,2.08,5.83,5.83,0,0,0,3.46.87H537v1.86h-14v-1.86a6,6,0,0,0,3.55-.93,8.16,8.16,0,0,0,2.4-3.54Zm-.76,7.07-6.93,16.35h13.63Z"/><path class="cls-63" d="M433.05,171.56a35.1,35.1,0,0,1-6.05,2.5l0,0h0l.1,0-.22.09h0l-.06,0h0c-15.11,6.89-25-8.56-11.38-10.61h-.16c3,.06,6,1.2,9,2.15l-.06,0,.16.06h0c3,1,5.71,3.48,8.79,4.2l-.15-.06a7.59,7.59,0,0,1,.77.35,7.32,7.32,0,0,0,.1,1Z"/><path class="cls-64" d="M434.17,169.85a12.73,12.73,0,0,1,2.48-1.54l-.08,0,.18-.07-.09,0c16.6-8.43,29.69,17.43,4,7.07h0a32.75,32.75,0,0,1-7-3.58,1.13,1.13,0,0,0-.18-1.08A9,9,0,0,1,434.17,169.85Z"/><path class="cls-65" d="M439,181.88c-2.48-4.31-5.14-8.27-7-13.18-.16-.44-.62,0-.45.39s.29.77.45,1.15a.31.31,0,0,0,0,.2c.23,6.91-5.76,6.77-9.21,8.63-4.43,2.38-6.52,8.69-7.34,14.76-.07.47.48.67.54.2a26.52,26.52,0,0,1,3.2-10.35,11.31,11.31,0,0,1,6.18-4.91c3.22-1.14,6.92-2.26,7.17-7.36a95.53,95.53,0,0,0,5.58,10.1,35.27,35.27,0,0,1,5,14.18c.06.48.61.48.55,0A35.5,35.5,0,0,0,439,181.88Z"/></g></g></svg>