<svg xmlns="http://www.w3.org/2000/svg" viewBox="0 0 573.86 180.94"><defs><style>.cls-1{fill:#010001;}</style></defs><title>Recurso 4</title><g id="Capa_2" data-name="Capa 2"><g id="Capa_1-2" data-name="Capa 1"><path class="cls-1" d="M85.36,141.47a2.79,2.79,0,0,1-.49,1.63,4.41,4.41,0,0,1-2.2,1.62A1.79,1.79,0,0,1,81,143.5c0-.27-.12-.54-.12-.81A1.89,1.89,0,0,1,81,142c-.37,0-.73-.13-1.1-.13h-3.8a34.83,34.83,0,0,1-3.79.27,148.22,148.22,0,0,0-15.19,2.57A123.61,123.61,0,0,0,27.8,155.81a100.57,100.57,0,0,0-19.72,13.4C6.74,170.43,5,172.45,3.18,173H2.69a2.42,2.42,0,0,1-2.45-1.76A4.4,4.4,0,0,1,0,170a15.63,15.63,0,0,1,1.22-4.87c1.72-4.74,4.17-9.2,6.25-13.8,4.9-10.15,9.43-20.43,14-30.71,7.23-16.23,14.09-32.74,20.21-49.51,3.55-9.88,6.86-19.76,9.92-29.9,2.57-8,4.77-16.24,7.22-24.35.74-2.3.86-5,2.21-7A2.24,2.24,0,0,1,62.7,8.76c1.11,0,2.08,1.35,2.08,3-.12,2.16-1.1,4.46-1.71,6.49-2.33,8.25-5,16.37-8.08,24.49C51.07,53.4,46.9,63.82,42.62,74.37L16.9,137.28c-2.08,5.28-4.29,10.42-6.37,15.69-1.47,4.2-3.06,8.26-4.53,12.45,1.1-.68,5.76-3.25,6.86-3.92,4.65-2.71,9.31-5.28,14.2-7.58l2.58-1.22a198.68,198.68,0,0,1,26.82-10.55A103.65,103.65,0,0,1,72,138.63a50.71,50.71,0,0,1,6.49-.54H80c1.35,0,2.94,0,4,.81A3,3,0,0,1,85.36,141.47Z"/><path class="cls-1" d="M129.82,102c0,.54-.74,1.08-1.1,1.35-.74.41-1.47.68-2.09,1.09a46.63,46.63,0,0,1-8.2,3.11,49.7,49.7,0,0,1-6.12,1.35c-.62.14-1.23.14-1.84.27-.86,1.76-1.84,3.52-2.82,5.28a26.44,26.44,0,0,1-5.14,6.63,4.59,4.59,0,0,1-2.94,1.21h-.25a2.48,2.48,0,0,1-1.83-1.75,5.86,5.86,0,0,1-.37-2c0-.82.12-1.49.12-2.17a24.56,24.56,0,0,1,.74-4.19,48.47,48.47,0,0,1,1.83-6,6.35,6.35,0,0,1-.24-1.48v-.41a5.82,5.82,0,0,1,.37-2,13.63,13.63,0,0,1,1.47-3.11,22.2,22.2,0,0,1,4.53-5.28,6.71,6.71,0,0,1,3.79-1.48,4.9,4.9,0,0,1,1.72.54c1.84.94,2.32,3.11,2.32,5.27a20.51,20.51,0,0,1-.48,3.93,37.33,37.33,0,0,1-2,5.14c2.32-.41,4.53-1,6.61-1.49a41.66,41.66,0,0,0,5.75-2,26.14,26.14,0,0,0,2.94-1.22,7.19,7.19,0,0,1,2.45-1.08C129.33,101.43,129.82,101.43,129.82,102ZM109,109.28h-2.94a8.87,8.87,0,0,1-3.18-.54h-.13c-.61,1.48-1.22,3-1.71,4.46a26.58,26.58,0,0,0-1,3,11.29,11.29,0,0,0-.37,2.16v.54c0,.41,0,.81.25.81a3.93,3.93,0,0,0,1.34-.54,10.94,10.94,0,0,0,1.23-.81,20.51,20.51,0,0,0,4-4.73A30.84,30.84,0,0,0,109,109.28Zm2.57-10.83c-.12-1.35-.49-3.38-2-3.38h-.12a5.76,5.76,0,0,0-2.33,1,28.44,28.44,0,0,0-2.2,1.89,19.06,19.06,0,0,0-1.59,1.9,2.3,2.3,0,0,1,2.2,1.89V102a2,2,0,0,1-.25.81c-.61,1.36-1.22,2.84-1.83,4.2a16.41,16.41,0,0,0,2.69.54,31.13,31.13,0,0,0,3.55-.14,3.7,3.7,0,0,0,.25-.67,2.42,2.42,0,0,1,.24-.68A26.44,26.44,0,0,0,111.57,98.45Z"/><path class="cls-1" d="M171.34,102v.14c0,.81-.49,1.21-1.11,1.62-1.47,1.08-2.81,2.16-4.28,3.25-1.84,1.49-3.8,3-5.64,4.6s-3.55,3.24-5.39,5c-1,.81-1.95,1.76-2.93,2.57a8.06,8.06,0,0,1-3.31,1.76h-.61a2.82,2.82,0,0,1-2.57-1.62,5.86,5.86,0,0,1-.37-2,13.54,13.54,0,0,1,.49-3.38,31.73,31.73,0,0,1,1.22-3.79,31.35,31.35,0,0,1,1.35-3.65c.61-1.49,1.35-3,2-4.47l-3.68,4.47c-1.59,1.89-3.18,3.78-4.89,5.68a74.31,74.31,0,0,1-5.39,5.41,27.78,27.78,0,0,1-3.06,2.3,10,10,0,0,1-5.15,1.89,4.8,4.8,0,0,1-1.35-.13c-2.08-.68-2.81-2.57-2.81-4.74a23.48,23.48,0,0,1,1.47-7,34.32,34.32,0,0,1,1.22-3.79c1-2.44,2-4.87,3.06-7.17L131.78,94a1.2,1.2,0,0,1,.37-.81,2.15,2.15,0,0,1,1.1-.54h.37a2.14,2.14,0,0,1,2.32,2.3,8.08,8.08,0,0,1-.73,2.43c-.61,1.22-1.1,2.44-1.72,3.65-1,2.3-2.08,4.6-2.94,6.9-.49,1.22-1,2.3-1.34,3.52a33.09,33.09,0,0,0-1,3.38,7.08,7.08,0,0,0-.25,1.63v.94c.12,0,.37-.13.49-.13a7.65,7.65,0,0,0,2.7-1.08,13.2,13.2,0,0,0,2.69-2,59.65,59.65,0,0,0,5.27-4.74c1.71-1.76,3.3-3.65,4.9-5.41l5-5.55A15.29,15.29,0,0,1,151.74,96a3.27,3.27,0,0,1,1.47-.54c.86,0,1.47.54,1.59,1.62a9.19,9.19,0,0,1-1.22,3.52l-3.31,6.9a53.09,53.09,0,0,0-2.69,6.9,11.36,11.36,0,0,0-.62,3,2.82,2.82,0,0,0,.25,1.09.82.82,0,0,0,.86.54,2.71,2.71,0,0,0,1.47-.41,26,26,0,0,0,4.77-3.65c2.33-2.17,4.66-4.6,7-6.77a55.89,55.89,0,0,1,7.6-6.22,2.46,2.46,0,0,1,1.47-.68,1,1,0,0,1,.61.14A.58.58,0,0,1,171.34,102Z"/><path class="cls-1" d="M193.87,102.38c0,.67-.49,1.08-1,1.62-1.35,1.76-2.69,3.25-4.16,4.87-1.84,2-3.8,4.06-5.76,5.95-2.08,2.17-4.16,4.2-6.37,6.23a19.68,19.68,0,0,1-5.51,3.78,5.3,5.3,0,0,1-2.08.55,1.88,1.88,0,0,1-.86-.14,3.39,3.39,0,0,1-2-2,8.24,8.24,0,0,1-.61-3.38v-1c.12-.81.12-1.62.25-2.43a99.31,99.31,0,0,1,4.77-17l2.57-6.09A2.4,2.4,0,0,1,175.38,92a1.91,1.91,0,0,1,1.71,1,2.87,2.87,0,0,1,.37,1.49,3.57,3.57,0,0,1-.24,1.08c-2.33,6-5,11.63-7.11,17.72a32.76,32.76,0,0,0-1.47,6,8.69,8.69,0,0,0-.12,1.76,2.36,2.36,0,0,0,.25,1.35c.12.27.49.27.73.27a2.27,2.27,0,0,0,1-.13,16.17,16.17,0,0,0,5.51-3.11,61.78,61.78,0,0,0,6.12-5.41c2-2,3.68-4.2,5.52-6.23l2.69-3.24a30.35,30.35,0,0,1,2-2.44.88.88,0,0,1,.86-.54h.12c.24,0,.49.27.61.68Zm-15.43-21A1.68,1.68,0,0,1,177,80.33a3.1,3.1,0,0,1-.49-1.49,1.07,1.07,0,0,1,.25-.68c.73-.68,1.34-1.35,2.08-2a19.29,19.29,0,0,1,1.59-1.49A14.31,14.31,0,0,1,181.62,73a1.66,1.66,0,0,1,1.23-.54,1.91,1.91,0,0,1,1.84,1.62v.27c0,1.22-.86,2.17-1.47,3.11A17.08,17.08,0,0,1,179.17,81Z"/><path class="cls-1" d="M221.67,102.11a1.38,1.38,0,0,1-1,1.21c-2,1-3.92,1.76-5.75,2.57-2.33,1.09-4.54,2.3-6.74,3.52a56,56,0,0,0-6.61,3.93,9,9,0,0,1,.49,1.89,13.42,13.42,0,0,1,.24,2.3,22.68,22.68,0,0,1-.73,5,24.58,24.58,0,0,1-1.59,4.2c-1.84,4.06-4.66,8.12-8.33,10.28a9.35,9.35,0,0,1-4.29,1.22A5.39,5.39,0,0,1,184,137a5.11,5.11,0,0,1-1.59-3.92,7.33,7.33,0,0,1,.37-2.3c1.1-3.39,3.79-6.23,6.12-8.66a76.84,76.84,0,0,1,5.76-5.55c1-.81,2-1.62,2.81-2.3a5.75,5.75,0,0,0-1.34-2.57,33.83,33.83,0,0,1-2.7-3.24,7.41,7.41,0,0,1-1.22-3.93c0-.27-.13-.4-.13-.67s.13-.41.13-.55a11.69,11.69,0,0,1,1.34-4.73,18,18,0,0,1,2.58-3.52,23.76,23.76,0,0,1,3.18-3,8,8,0,0,1,4.29-1.63,3.31,3.31,0,0,1,1.59.27A3.22,3.22,0,0,1,207,93.45a3.81,3.81,0,0,1-1.72,2.84,18.35,18.35,0,0,1-3.31,2.3,28.22,28.22,0,0,1-3.42,1.89,9.6,9.6,0,0,1-1.6,1l-1.47.68a5.65,5.65,0,0,0-.12,1.35,5.22,5.22,0,0,0,.74,2.7,33.62,33.62,0,0,0,2.69,2.44,16.66,16.66,0,0,1,2.21,3c2.08-1.49,4.16-2.84,6.24-4.2,1.35-.81,2.82-1.62,4.16-2.3A76.07,76.07,0,0,1,220.2,101h.25a1.34,1.34,0,0,1,1,.41A1.55,1.55,0,0,1,221.67,102.11ZM197.79,116c-.73.68-1.47,1.22-2.2,1.89a44.48,44.48,0,0,0-5.51,5.55,26.8,26.8,0,0,0-2.21,3.11,16.57,16.57,0,0,0-2,5.14A3,3,0,0,0,186,133c.13.27.37.27.62.27H187a3.22,3.22,0,0,0,1.11-.27,8.41,8.41,0,0,0,3.67-2.7,25.45,25.45,0,0,0,5.39-9.34,15.11,15.11,0,0,0,.61-3.38Z"/><path class="cls-1" d="M254.49,102.51c0,.95-.85,1.63-1.47,2.3a53.42,53.42,0,0,1-6.36,5.82A63.74,63.74,0,0,1,237.1,117a37.93,37.93,0,0,1-5.26,2.43,18.08,18.08,0,0,1-5.27,1,8.43,8.43,0,0,1-4-1c-2.94-1.76-4.29-5.27-4.29-8.79v-1.22a11.85,11.85,0,0,1,.25-2,23.71,23.71,0,0,1,8.94-14.61,26,26,0,0,1,5.14-3.24,12.42,12.42,0,0,1,3.06-.82c.25,0,.49.14.74.14a2.89,2.89,0,0,1,2.2,2.16v.54a5.54,5.54,0,0,1-1,2.71,19.83,19.83,0,0,1-4.28,3.79,26.92,26.92,0,0,1-4.9,3,36.77,36.77,0,0,1-3.55,1.49c-.37.68-.62,1.49-1,2.3a25,25,0,0,0-1.11,5c0,2,.37,4.33,1.84,5.82a6.55,6.55,0,0,0,4.41,1.48,10.19,10.19,0,0,0,3.55-.54c4.66-1.49,8.82-4.6,12.74-7.84l6.24-5.69a5.58,5.58,0,0,1,1.6-1.48,1,1,0,0,1,.61-.14c.37,0,.61.27.73.68ZM227.18,99a7.36,7.36,0,0,0,1.72-1.08c1-.67,2-1.49,2.94-2.16.61-.68,1.34-1.22,2-1.9.24-.27.49-.67.73-.94a26.29,26.29,0,0,0-2.69,1.62,22.21,22.21,0,0,0-2,1.76A27.49,27.49,0,0,0,227.18,99Z"/><path class="cls-1" d="M266.25,54.89a.53.53,0,0,1,.12-.4,6.31,6.31,0,0,1,1-1.49,22.25,22.25,0,0,1,1.72-1.76l.73-.81c0-.14,0-.14.13-.27a.72.72,0,0,1,.24-.54c.25-.41.49-.68.74-1.09a6.76,6.76,0,0,1,1.47-1.89,14.79,14.79,0,0,1,1.46-1.49,2.26,2.26,0,0,1,.86-.27,1.38,1.38,0,0,1,1.47,1.49v.27a3.2,3.2,0,0,1-1.35,2c-.24.27-.61.54-.85.81a10.61,10.61,0,0,0-1.72,1.76c-.49.54-1,1.22-1.47,1.76s-1,1.22-1.47,1.89A7.07,7.07,0,0,1,268,56.38a1.21,1.21,0,0,1-.62-.14A1.52,1.52,0,0,1,266.25,54.89Z"/><path class="cls-1" d="M301.28,102.11a1.38,1.38,0,0,1-1,1.21c-2,1-3.92,1.76-5.76,2.57-2.33,1.09-4.53,2.3-6.73,3.52a56.08,56.08,0,0,0-6.62,3.93,7.91,7.91,0,0,1,.49,1.89,13.39,13.39,0,0,1,.25,2.3,22.1,22.1,0,0,1-.74,5,24.58,24.58,0,0,1-1.59,4.2c-1.84,4.06-4.65,8.12-8.33,10.28a9.27,9.27,0,0,1-4.28,1.22,5.37,5.37,0,0,1-3.43-1.22,5.08,5.08,0,0,1-1.6-3.92,7.63,7.63,0,0,1,.37-2.3c1.1-3.39,3.8-6.23,6.13-8.66a74.86,74.86,0,0,1,5.75-5.55c1-.81,2-1.62,2.82-2.3a5.77,5.77,0,0,0-1.35-2.57,32.32,32.32,0,0,1-2.69-3.24,7.33,7.33,0,0,1-1.23-3.93c0-.27-.12-.4-.12-.67s.12-.41.12-.55a11.54,11.54,0,0,1,1.35-4.73,17.6,17.6,0,0,1,2.57-3.52,23.76,23.76,0,0,1,3.18-3,8,8,0,0,1,4.29-1.63,3.31,3.31,0,0,1,1.59.27,3.22,3.22,0,0,1,1.84,2.71,3.83,3.83,0,0,1-1.71,2.84,18.71,18.71,0,0,1-3.31,2.3,28.35,28.35,0,0,1-3.43,1.89,9.53,9.53,0,0,1-1.59,1l-1.47.68a5.65,5.65,0,0,0-.12,1.35,5.21,5.21,0,0,0,.73,2.7,32.32,32.32,0,0,0,2.7,2.44,16.61,16.61,0,0,1,2.2,3c2.08-1.49,4.16-2.84,6.25-4.2,1.34-.81,2.81-1.62,4.16-2.3a76.07,76.07,0,0,1,8.82-4.06h.24a1.31,1.31,0,0,1,1,.41A1.57,1.57,0,0,1,301.28,102.11ZM277.4,116c-.74.68-1.47,1.22-2.21,1.89a44.48,44.48,0,0,0-5.51,5.55,26.73,26.73,0,0,0-2.2,3.11,16.33,16.33,0,0,0-2,5.14,3,3,0,0,0,.12,1.22c.12.27.37.27.61.27h.37a3.17,3.17,0,0,0,1.1-.27,8.41,8.41,0,0,0,3.67-2.7,25.45,25.45,0,0,0,5.39-9.34,14.56,14.56,0,0,0,.62-3.38Z"/><path class="cls-1" d="M380.7,105.72c2.61,2.37,5.23,4.74,7.84,7,8.39,7.41,17,14.51,25.71,21.62s17.46,14.22,26,21.47c4.26,3.55,8.53,7.26,12.79,11.25,1,1,1.92,1.93,3,3a30.3,30.3,0,0,1,4.26,5.33,5.36,5.36,0,0,1,1,3v.44a2.85,2.85,0,0,1-2.89,2.22,2.59,2.59,0,0,1-1.51-.29c-.55-.3-1.38-.74-1.38-1.48V179c0-.59.69-.89,1.1-1a2.67,2.67,0,0,1,.83-.29,4.06,4.06,0,0,0-1.24-1.78,56,56,0,0,0-5.64-6.07c-4-3.7-8.25-7.41-12.51-11.11s-8.38-7.4-12.65-11.1l-12.92-10.81c-3.71-3.26-7.56-6.52-11.41-9.92-8.39-7.26-16.77-14.66-25-22.21-.14-.15-.14-.15-.28-.15-1.78,4.44-3.57,9-5.22,13.47-3.85,9.92-7.56,19.7-11.14,29.77-2.61,7.4-5.08,14.95-7.15,22.5a59.25,59.25,0,0,0-1.51,6.67c-.14,1.48-.82,3-2.34,3.25-.27,0-.41.15-.68.15a2.43,2.43,0,0,1-2.2-1.33,2.22,2.22,0,0,1-.42-1.63,17.11,17.11,0,0,1,.83-3.85c.69-3,1.37-5.78,2.06-8.74,1-4,2.06-8,3-11.84,2.06-8,4.26-15.85,6.73-23.55s5.23-15.4,8.39-22.8c.82-2.07,1.79-4,2.61-5.92a26,26,0,0,1-3.85-4,25.35,25.35,0,0,1-3.3-5.48,2.81,2.81,0,0,1-.27-1,2.15,2.15,0,0,1,1.1-1.93,1.66,1.66,0,0,1,2.33.44,77.85,77.85,0,0,0,6.19,7.41c0-.15.14-.3.28-.59,1.65-3.56,3.57-7.11,5.5-10.67A191.71,191.71,0,0,1,391,62.78l.83-1.77a2,2,0,0,1-1.51-1,3,3,0,0,1-.42-1.48,4.59,4.59,0,0,1,.28-1.48c1-1.93,1.79-3.85,2.61-5.63l3.3-7.25c2.2-4.74,4.54-9.63,6.74-14.37,4.67-9.47,9.21-19.1,14.43-28.28A2.58,2.58,0,0,1,419.33,0a2.54,2.54,0,0,1,1.93,1.18c.27.45.41.6.41,1a1.15,1.15,0,0,1-.14.59c-3.3,7-6.87,13.77-10.17,20.73l-3.44,7.11c-4.12,8.74-8.25,17.47-12.23,26.36a130.77,130.77,0,0,1,9.48-10.37,141.32,141.32,0,0,1,18-15.25,95.66,95.66,0,0,1,20.35-11.25,49,49,0,0,1,14.3-4,16.07,16.07,0,0,1,2.75-.15c6.87,0,14.16,2.67,15.26,11.26a13.36,13.36,0,0,1,.14,2.36c0,7.85-4.54,15.7-8.53,21.77A100.55,100.55,0,0,1,460,61a154.53,154.53,0,0,1-16.91,16.58,191.22,191.22,0,0,1-18.84,13.92c-8.25,5.18-17,9.77-26.26,12.44A50.31,50.31,0,0,1,386.48,106,37.33,37.33,0,0,1,380.7,105.72Zm-7.15-2.07a15.26,15.26,0,0,1-1.51-.74,13.65,13.65,0,0,1-2.06-1.33c-.83,1.92-1.65,3.7-2.48,5.62-3,7.56-5.77,15.11-8.11,22.81-1.92,6.51-3.57,13.17-4.95,19.84.41-1.19,1-2.37,1.38-3.7,1.92-4.89,4-9.78,6.05-14.66s4-9.78,6.05-14.66C369.84,112.39,371.63,108.09,373.55,103.65Zm6.88-16c2.75-6.37,5.5-12.88,8.25-19.25a168.36,168.36,0,0,0-10.87,17.17c-1.92,3.56-3.71,7.11-5.49,10.67l-.42.88c1,1,2.07,2.08,3,3.11C376.72,96.1,378.64,91.8,380.43,87.66Zm.55,15a30.58,30.58,0,0,0,5.22.45c5.64,0,11.41-1.48,16.64-3.26a114.92,114.92,0,0,0,20.34-10.22,157,157,0,0,0,18.43-13.92,138.71,138.71,0,0,0,15.94-17c4.82-5.93,9.35-12.59,11.69-20a32.46,32.46,0,0,0,1.37-8.3c0-3.85-1.23-7.4-5.22-9a20.6,20.6,0,0,0-7.84-1.48,39,39,0,0,0-13.19,2.67,95,95,0,0,0-20.21,10.66,123.47,123.47,0,0,0-17.88,14.66A153.09,153.09,0,0,0,393.49,62c-3.85,8.74-7.56,17.62-11.28,26.51-1.65,4.29-3.43,8.58-5.22,12.88A19.91,19.91,0,0,0,381,102.61Z"/><path class="cls-1" d="M474.74,102c0,.59-.82,1.19-1.24,1.48-.82.45-1.65.74-2.33,1.19a53.58,53.58,0,0,1-9.22,3.4,55.79,55.79,0,0,1-6.87,1.48c-.69.15-1.37.15-2.06.3-1,1.92-2.06,3.85-3.16,5.77a28.87,28.87,0,0,1-5.78,7.26,5.16,5.16,0,0,1-3.3,1.33h-.27a2.78,2.78,0,0,1-2.06-1.92,6.23,6.23,0,0,1-.42-2.22c0-.89.14-1.63.14-2.37a26.37,26.37,0,0,1,.83-4.59,50,50,0,0,1,2.06-6.52,6.63,6.63,0,0,1-.28-1.63v-.44a6.45,6.45,0,0,1,.41-2.22,15.6,15.6,0,0,1,1.66-3.41,24.51,24.51,0,0,1,5.08-5.77,7.65,7.65,0,0,1,4.26-1.63,5.53,5.53,0,0,1,1.93.59c2.06,1,2.61,3.41,2.61,5.78a21.06,21.06,0,0,1-.55,4.29,39.12,39.12,0,0,1-2.2,5.63c2.61-.45,5.09-1,7.42-1.63a50.85,50.85,0,0,0,6.47-2.22,30.45,30.45,0,0,0,3.3-1.34,8,8,0,0,1,2.75-1.18C474.19,101.43,474.74,101.43,474.74,102Zm-23.37,8h-3.3a10,10,0,0,1-3.58-.6h-.13c-.69,1.63-1.38,3.26-1.93,4.89a32.05,32.05,0,0,0-1.1,3.26,11.81,11.81,0,0,0-.41,2.37v.59c0,.44,0,.89.27.89a5,5,0,0,0,1.52-.59,13.08,13.08,0,0,0,1.37-.89,22.61,22.61,0,0,0,4.54-5.18A33,33,0,0,0,451.37,110Zm2.89-11.85c-.14-1.48-.55-3.7-2.2-3.7h-.14a6.31,6.31,0,0,0-2.61,1,30.21,30.21,0,0,0-2.48,2.07A23.58,23.58,0,0,0,445,99.65a2.57,2.57,0,0,1,2.48,2.08V102a2.2,2.2,0,0,1-.28.89c-.68,1.48-1.37,3.11-2.06,4.59a18.28,18.28,0,0,0,3,.59,36.56,36.56,0,0,0,4-.15,3.87,3.87,0,0,0,.28-.74,3,3,0,0,1,.27-.74A28.23,28.23,0,0,0,454.26,98.17Z"/><path class="cls-1" d="M506,102.17a1.54,1.54,0,0,1-1.1,1.33c-2.2,1-4.4,1.93-6.46,2.82-2.62,1.18-5.09,2.51-7.56,3.85a63,63,0,0,0-7.43,4.29,8.82,8.82,0,0,1,.55,2.07,13.77,13.77,0,0,1,.28,2.52,24.1,24.1,0,0,1-.83,5.48,25.71,25.71,0,0,1-1.79,4.59c-2.06,4.44-5.22,8.88-9.34,11.25a10.76,10.76,0,0,1-4.82,1.33,6.12,6.12,0,0,1-3.85-1.33,5.53,5.53,0,0,1-1.78-4.29,7.91,7.91,0,0,1,.41-2.52c1.24-3.7,4.26-6.81,6.87-9.48a87.25,87.25,0,0,1,6.46-6.07c1.1-.89,2.2-1.77,3.17-2.51a6.26,6.26,0,0,0-1.52-2.82,36.94,36.94,0,0,1-3-3.55,7.87,7.87,0,0,1-1.38-4.3c0-.29-.13-.44-.13-.74,0-.14.13-.44.13-.59a12.49,12.49,0,0,1,1.52-5.18,19.15,19.15,0,0,1,2.88-3.85,26.81,26.81,0,0,1,3.58-3.26,9.11,9.11,0,0,1,4.81-1.77,3.88,3.88,0,0,1,1.79.29,3.52,3.52,0,0,1,2.06,3,4.15,4.15,0,0,1-1.92,3.11,20.65,20.65,0,0,1-3.72,2.52,31.39,31.39,0,0,1-3.85,2.07,11,11,0,0,1-1.78,1l-1.65.74a5.87,5.87,0,0,0-.14,1.48,5.62,5.62,0,0,0,.82,3,38.76,38.76,0,0,0,3,2.67,17.76,17.76,0,0,1,2.47,3.25c2.34-1.62,4.68-3.11,7-4.59,1.51-.88,3.16-1.77,4.67-2.51a85.69,85.69,0,0,1,9.9-4.45h.27a1.47,1.47,0,0,1,1.1.45C505.81,101.73,506,101.87,506,102.17Zm-26.81,15.25c-.83.74-1.65,1.33-2.48,2.07a49.81,49.81,0,0,0-6.18,6.07A30.34,30.34,0,0,0,468,129a17.83,17.83,0,0,0-2.2,5.63,3.08,3.08,0,0,0,.14,1.33c.14.3.41.3.69.3H467a3.75,3.75,0,0,0,1.24-.3,9.56,9.56,0,0,0,4.12-3,27.78,27.78,0,0,0,6.05-10.22,15.65,15.65,0,0,0,.69-3.7Z"/><path class="cls-1" d="M542.79,102.61c0,1-1,1.78-1.65,2.52A59.47,59.47,0,0,1,534,111.5a71.34,71.34,0,0,1-10.72,7,43.55,43.55,0,0,1-5.91,2.66,20.82,20.82,0,0,1-5.91,1,9.78,9.78,0,0,1-4.54-1c-3.3-1.92-4.81-5.77-4.81-9.62v-1.33a12.94,12.94,0,0,1,.27-2.23,25.88,25.88,0,0,1,10-16,29.73,29.73,0,0,1,5.77-3.55,14.54,14.54,0,0,1,3.44-.89c.28,0,.55.15.83.15A3.18,3.18,0,0,1,524.92,90v.59a6,6,0,0,1-1.1,3A22.26,22.26,0,0,1,519,97.73a30.07,30.07,0,0,1-5.5,3.25,40.79,40.79,0,0,1-4,1.63c-.41.74-.68,1.63-1.1,2.52a25.73,25.73,0,0,0-1.23,5.48c0,2.22.41,4.74,2.06,6.37a7.46,7.46,0,0,0,5,1.62,11.67,11.67,0,0,0,4-.59c5.23-1.63,9.9-5,14.3-8.59l7-6.21a6.09,6.09,0,0,1,1.79-1.63,1.16,1.16,0,0,1,.69-.15.89.89,0,0,1,.82.74Zm-30.65-3.85a8.68,8.68,0,0,0,1.92-1.18c1.1-.74,2.2-1.63,3.3-2.37.69-.74,1.51-1.33,2.2-2.07.27-.3.55-.74.82-1a31.71,31.71,0,0,0-3,1.78,25.15,25.15,0,0,0-2.2,1.92A30.41,30.41,0,0,0,512.14,98.76Z"/><path class="cls-1" d="M573.86,102.17a1.54,1.54,0,0,1-1.1,1.33c-2.2,1-4.4,1.93-6.46,2.82-2.61,1.18-5.08,2.51-7.56,3.85a62.9,62.9,0,0,0-7.42,4.29,9.33,9.33,0,0,1,.55,2.07,14.75,14.75,0,0,1,.27,2.52,24.09,24.09,0,0,1-.82,5.48,26.49,26.49,0,0,1-1.79,4.59c-2.06,4.44-5.22,8.88-9.35,11.25a10.68,10.68,0,0,1-4.81,1.33,6.1,6.1,0,0,1-3.85-1.33,5.51,5.51,0,0,1-1.79-4.29,8.2,8.2,0,0,1,.41-2.52c1.24-3.7,4.27-6.81,6.88-9.48a85.31,85.31,0,0,1,6.46-6.07c1.1-.89,2.2-1.77,3.16-2.51a6.24,6.24,0,0,0-1.51-2.82,37,37,0,0,1-3-3.55,8,8,0,0,1-1.37-4.3c0-.29-.14-.44-.14-.74,0-.14.14-.44.14-.59a12.64,12.64,0,0,1,1.51-5.18,19.58,19.58,0,0,1,2.89-3.85,27.34,27.34,0,0,1,3.57-3.26,9.18,9.18,0,0,1,4.82-1.77,3.84,3.84,0,0,1,1.78.29,3.53,3.53,0,0,1,2.07,3,4.16,4.16,0,0,1-1.93,3.11,20.57,20.57,0,0,1-3.71,2.52,32.92,32.92,0,0,1-3.85,2.07,11,11,0,0,1-1.79,1l-1.65.74a6.3,6.3,0,0,0-.13,1.48,5.62,5.62,0,0,0,.82,3,40.26,40.26,0,0,0,3,2.67,17.82,17.82,0,0,1,2.48,3.25c2.34-1.62,4.67-3.11,7-4.59,1.51-.88,3.16-1.77,4.67-2.51a86.47,86.47,0,0,1,9.9-4.45h.28a1.5,1.5,0,0,1,1.1.45A1.59,1.59,0,0,1,573.86,102.17Zm-26.81,15.25c-.82.74-1.65,1.33-2.47,2.07a49.88,49.88,0,0,0-6.19,6.07,31.57,31.57,0,0,0-2.47,3.41,17.59,17.59,0,0,0-2.2,5.63,3.08,3.08,0,0,0,.14,1.33c.13.3.41.3.68.3H535a3.69,3.69,0,0,0,1.23-.3,9.59,9.59,0,0,0,4.13-3,27.91,27.91,0,0,0,6-10.22,16.17,16.17,0,0,0,.68-3.7Z"/></g></g></svg>